<?xml version="1.0" encoding="UTF-8" standalone="no"?>
<svg
   xmlns:dc="http://purl.org/dc/elements/1.1/"
   xmlns:cc="http://creativecommons.org/ns#"
   xmlns:rdf="http://www.w3.org/1999/02/22-rdf-syntax-ns#"
   xmlns:svg="http://www.w3.org/2000/svg"
   xmlns="http://www.w3.org/2000/svg"
   xmlns:sodipodi="http://sodipodi.sourceforge.net/DTD/sodipodi-0.dtd"
   xmlns:inkscape="http://www.inkscape.org/namespaces/inkscape"
   version="1.1"
   width="161.5748"
   height="192.75591"
   id="svg4"
   viewBox="0 0 161.5748 192.75591"
   sodipodi:docname="999.svg"
   inkscape:version="0.92.1 r15371">
  <metadata
     id="metadata10">
    <rdf:RDF>
      <cc:Work
         rdf:about="">
        <dc:format>image/svg+xml</dc:format>
        <dc:type
           rdf:resource="http://purl.org/dc/dcmitype/StillImage" />
        <dc:title></dc:title>
      </cc:Work>
    </rdf:RDF>
  </metadata>
  <defs
     id="defs8" />
  <sodipodi:namedview
     pagecolor="#ffffff"
     bordercolor="#666666"
     borderopacity="1"
     objecttolerance="10"
     gridtolerance="10"
     guidetolerance="10"
     inkscape:pageopacity="0"
     inkscape:pageshadow="2"
     inkscape:window-width="1600"
     inkscape:window-height="878"
     id="namedview6"
     showgrid="false"
     inkscape:zoom="1.2243464"
     inkscape:cx="80.787399"
     inkscape:cy="96.377953"
     inkscape:window-x="-8"
     inkscape:window-y="-8"
     inkscape:window-maximized="1"
     inkscape:current-layer="svg4" />
  <path
     d="m 74.0313,67.7968 -2.8811,3.0594 -3.0391,2.8386 -3.0378,2.6938 -2.8766,2.6249 -2.5563,2.6334 -2.0753,2.7181 -1.4357,2.8789 -0.6353,3.1161 0.1185,3.282 0.6854,3.0245 1.1727,2.7995 1.5787,2.6068 1.9054,2.4451 2.1518,2.3165 2.3179,2.219 2.4038,2.1537 2.0664,1.8663 1.9735,1.8862 1.8575,1.9007 1.719,1.9082 1.5556,1.9106 1.3703,1.9063 1.1611,1.8966 0.9289,1.8806 0.9932,3.8678 -0.3124,3.6607 -1.476,3.348 -2.4976,2.9299 -3.3766,2.4077 -4.1139,1.7793 -4.7086,1.046 -5.1614,0.2081 -4.7426,-0.6449 -4.6304,-1.4346 -4.4946,-2.1368 -4.3367,-2.7516 -4.1556,-3.2788 -3.9524,-3.7176 -3.7256,-4.0703 -3.4764,-4.3347 -2.5988,-3.6341 -2.5069,-3.8868 -2.3905,-4.1097 -2.2479,-4.3024 -2.0806,-4.4654 L 12.5802,98.2437 10.91,93.5416 9.4833,88.7661 8.3957,84.2791 7.5614,79.7786 7.0004,75.2885 6.734,70.8327 6.7819,66.4356 7.1649,62.1213 7.903,57.9135 9.0173,53.837 9.3858,52.7545 9.7756,51.6986 10.1854,50.669 10.6157,49.6655 9.5995,49.6945 8.6513,49.6165 7.7712,49.4393 6.9593,49.1709 6.2152,48.8197 5.5389,48.3934 4.93,47.9001 4.3889,47.3474 3.6975,46.4151 3.1601,45.3937 2.7771,44.3106 2.5478,43.1938 2.4718,42.0715 2.5492,40.9711 2.7785,39.9203 3.1606,38.9477 3.6278,38.1711 4.2146,37.497 4.9209,36.9459 5.747,36.5369 6.6915,36.29 l 1.0632,-0.0655 1.1818,0.1352 1.3,0.356 0.1139,0.0539 0.1316,0.0695 0.0564,0.0269 0.0413,0.0139 0.0207,-0.0046 L 10.5931,36.8467 10.1344,35.9779 9.7353,35.1323 9.5638,34.7156 9.413,34.3018 9.2857,33.8896 9.1837,33.478 9.0108,32.292 9.0031,31.146 l 0.146,-1.0956 0.2883,-1.0347 0.4187,-0.9635 0.5383,-0.8821 0.6463,-0.7898 0.7429,-0.6876 1.0979,-0.7268 1.2177,-0.5108 1.3125,-0.2719 1.3816,-0.0099 1.4261,0.2752 1.4443,0.5843 1.4371,0.9158 1.4052,1.2708 -0.2835,-1.8805 0.0456,-1.7459 0.3413,-1.5922 0.6024,-1.4201 0.8311,-1.2291 1.0256,-1.0197 1.1857,-0.7914 1.3127,-0.5437 1.0772,-0.2387 1.1166,-0.0725 1.1415,0.1029 1.1506,0.2866 1.144,0.4784 1.1225,0.6795 1.0849,0.8884 1.0326,1.1066 0.4394,0.5718 0.3974,0.5924 0.3555,0.6106 0.3129,0.6259 0.3382,-2.8695 0.6843,-2.4806 0.9788,-2.0914 1.2226,-1.7028 1.415,-1.3136 1.5562,-0.9243 1.6464,-0.5358 1.6855,-0.1463 1.5199,0.2041 1.472,0.5242 1.3851,0.8447 1.2605,1.1653 1.0976,1.4856 0.8963,1.8063 0.6571,2.1265 0.3793,2.4472 0.0722,-0.3989 0.0763,-0.4507 0.0825,-0.4515 0.0918,-0.4011 1.3207,-3.6145 1.8666,-3.2547 2.3281,-2.8327 2.7042,-2.3493 2.9957,-1.8037 3.2023,-1.1968 3.3245,-0.5275 3.361,0.2035 3.1612,0.9439 2.7505,1.5962 2.2949,2.1637 1.7938,2.6464 1.2478,3.0444 0.6556,3.358 0.019,3.5866 -0.6633,3.7304 -0.7639,2.3123 -0.9941,2.1738 -1.2028,2.0211 -1.3892,1.855 -1.5548,1.675 -1.6994,1.4811 -1.8213,1.2736 -1.9224,1.0517 0.5924,0.9456 0.5346,0.974 0.4765,1.0006 0.4179,1.0265 0.358,1.0508 0.2985,1.0743 0.2372,1.0962 0.1769,1.1171 0.0689,0.5887 0.057,0.5928 0.0447,0.5856 0.0329,0.5675 0.6636,-0.3934 0.688,-0.3572 0.7112,-0.3203 0.7333,-0.2821 0.7549,-0.2423 0.7761,-0.2019 0.7963,-0.1601 0.8158,-0.1171 0.4853,-0.0468 0.485,-0.0286 0.4847,-0.0116 0.4839,0.0057 0.9643,0.0584 0.9581,0.1179 2.8015,0.6916 2.6785,1.1753 2.5052,1.6157 2.2808,2.0146 2.0063,2.3706 1.681,2.6839 1.3056,2.9556 0.8791,3.1842 0.0643,0.4062 0.0513,0.4561 0.0451,0.455 0.0448,0.4033 0.6539,-2.7581 0.9862,-2.3068 1.2591,-1.8601 1.4741,-1.4176 1.6302,-0.9788 1.7271,-0.5443 1.766,-0.1131 1.7459,0.3127 1.3776,0.5729 1.292,0.8555 1.1744,1.1358 1.0236,1.4142 0.8408,1.6897 0.6256,1.9633 0.3775,2.2349 0.0976,2.5038 0.3551,-0.6032 0.3966,-0.5845 0.4374,-0.5638 0.4773,-0.5403 1.1946,-1.1047 1.2367,-0.8487 1.2606,-0.6043 1.2657,-0.3725 1.2523,-0.1525 1.2206,0.0556 1.1701,0.2511 1.101,0.4354 1.1381,0.6982 0.9992,0.9006 0.8343,1.0853 0.6412,1.2521 0.4221,1.4023 0.1763,1.535 -0.0973,1.6497 -0.3968,1.7473 1.0179,-0.8419 1.0245,-0.6709 1.0244,-0.5083 1.0165,-0.3535 1.0006,-0.2066 0.9771,-0.068 0.9468,0.0632 0.9077,0.1856 1.2427,0.4763 1.1196,0.697 0.9735,0.8929 0.8027,1.0636 0.6086,1.2089 0.3904,1.3301 0.1482,1.4252 -0.1179,1.4964 -0.1128,0.5156 -0.1585,0.5131 -0.1984,0.5137 -0.2324,0.5173 -0.5443,1.059 -0.612,1.1135 -0.0181,0.0737 0.0518,0.0175 0.1058,-0.0249 0.1431,-0.0553 0.3322,-0.1448 0.2849,-0.1038 1.3774,-0.1862 1.2197,0.0544 1.0636,0.2699 0.9088,0.46 0.7551,0.6251 0.6035,0.7642 0.4524,0.8784 0.3033,0.9669 0.1508,0.97 0.0204,1.0052 -0.1082,1.0191 -0.2365,1.0111 -0.3631,0.9828 -0.4887,0.9326 -0.6128,0.8614 -0.7359,0.769 -0.5703,0.459 -0.6262,0.3999 -0.682,0.3342 -0.7373,0.2614 -0.7923,0.182 -0.847,0.0958 -0.9011,0.0037 -0.9547,-0.0961 0.3603,1.0309 0.3384,1.0551 0.3161,1.0803 0.2939,1.1052 0.8317,4.1434 0.4482,4.2483 0.0862,4.3302 -0.2537,4.3903 -0.5715,4.4269 -0.8671,4.4413 -1.141,4.4328 -1.3929,4.4019 -1.7507,4.6664 -1.9882,4.5766 -2.1988,4.4583 -2.3823,4.3123 -2.5376,4.1381 -2.6665,3.9361 -2.7678,3.7058 -2.8417,3.4472 -3.7658,4.0861 -3.9957,3.8053 -4.1979,3.4381 -4.3704,2.986 -4.5153,2.4477 -4.6304,1.8236 -4.7177,1.114 -4.7758,0.3183 -5.135,-0.5615 -4.6259,-1.3666 -3.9821,-2.0571 -3.2037,-2.6334 -2.2907,-3.0946 -1.2432,-3.4412 -0.0607,-3.6735 1.2563,-3.7905 1.0554,-1.8124 1.2886,-1.8125 1.4975,-1.8079 1.6835,-1.7992 1.8448,-1.7864 1.984,-1.7685 2.0982,-1.7464 2.1895,-1.7201 2.5461,-1.9843 2.4644,-2.0548 2.3057,-2.1631 2.0684,-2.3091 1.7538,-2.4919 1.3615,-2.7128 0.8912,-2.9704 0.3433,-3.2664 -1.0857,-4.9975 -2.9341,-4.6522 -4.0969,-4.5641 -4.5749,-4.7321 -4.3667,-5.1568 -3.4742,-5.8385 -1.8955,-6.7765 0.3682,-7.9713 0.2526,-1.1024 0.3121,-1.0772 0.3713,-1.0511 0.4295,-1.0241 0.4872,-0.9953 0.544,-0.9657 0.6001,-0.9346 0.6559,-0.9031 -1.7487,-1.1112 -1.6457,-1.304 -1.5257,-1.483 -1.3881,-1.6492 -1.2336,-1.8029 -1.0616,-1.944 -0.8725,-2.071 -0.6653,-2.186 -0.2313,-1.0378 z m 2.6195,-56.6308 0.7563,0.0759 0.7041,0.2186 0.6372,0.3458 0.5553,0.4584 0.4581,0.5553 0.3459,0.6372 0.2185,0.7041 0.0763,0.756 -0.0763,0.756 -0.2185,0.7041 -0.3459,0.6376 -0.4581,0.555 -0.5553,0.4583 -0.6372,0.3459 -0.7041,0.2182 -0.7563,0.0763 -0.7557,-0.0763 -0.7041,-0.2182 -0.6378,-0.3459 -0.5551,-0.4583 -0.458,-0.555 -0.3459,-0.6376 -0.2185,-0.7041 -0.0766,-0.756 0.0766,-0.756 0.2185,-0.7041 0.3459,-0.6372 0.458,-0.5553 0.5551,-0.4584 0.6378,-0.3458 0.7041,-0.2186 0.7557,-0.0759 z"
     style="fill:#000000;fill-rule:evenodd;stroke:#000000;stroke-width:0.21600001;stroke-linecap:butt;stroke-linejoin:bevel;stroke-dasharray:none"
     id="path2"
     inkscape:connector-curvature="0" />
</svg>
