<?xml version="1.0" encoding="UTF-8" standalone="no"?>
<svg
   xmlns:dc="http://purl.org/dc/elements/1.1/"
   xmlns:cc="http://creativecommons.org/ns#"
   xmlns:rdf="http://www.w3.org/1999/02/22-rdf-syntax-ns#"
   xmlns:svg="http://www.w3.org/2000/svg"
   xmlns="http://www.w3.org/2000/svg"
   xmlns:sodipodi="http://sodipodi.sourceforge.net/DTD/sodipodi-0.dtd"
   xmlns:inkscape="http://www.inkscape.org/namespaces/inkscape"
   version="1.1"
   width="161.5748"
   height="192.75591"
   id="svg4487"
   viewBox="0 0 161.5748 192.75591"
   sodipodi:docname="9999.svg"
   inkscape:version="0.92.1 r15371">
  <metadata
     id="metadata4493">
    <rdf:RDF>
      <cc:Work
         rdf:about="">
        <dc:format>image/svg+xml</dc:format>
        <dc:type
           rdf:resource="http://purl.org/dc/dcmitype/StillImage" />
        <dc:title></dc:title>
      </cc:Work>
    </rdf:RDF>
  </metadata>
  <defs
     id="defs4491" />
  <sodipodi:namedview
     pagecolor="#ffffff"
     bordercolor="#666666"
     borderopacity="1"
     objecttolerance="10"
     gridtolerance="10"
     guidetolerance="10"
     inkscape:pageopacity="0"
     inkscape:pageshadow="2"
     inkscape:window-width="1600"
     inkscape:window-height="878"
     id="namedview4489"
     showgrid="false"
     inkscape:zoom="3.6782271"
     inkscape:cx="80.787399"
     inkscape:cy="96.377953"
     inkscape:window-x="-8"
     inkscape:window-y="-8"
     inkscape:window-maximized="1"
     inkscape:current-layer="svg4487" />
  <path
     d="m 135.8813,55.5593 0.4535,0.0919 0.4669,0.0765 0.4768,0.0632 0.4836,0.0499 0.9762,0.0632 0.9678,0.0199 1.8555,-0.0998 1.7947,-0.292 1.722,-0.4734 1.6387,-0.6443 1.5438,-0.8036 1.4374,-0.953 1.3201,-1.0908 1.1911,-1.218 0.8487,-1.0542 0.7543,-1.1223 0.654,-1.1851 0.5479,-1.2425 0.436,-1.2945 0.3183,-1.3408 0.1953,-1.3825 0.0663,-1.4176 -0.1165,-1.876 -0.3407,-1.8102 -0.5519,-1.7314 -0.7495,-1.6398 -0.9331,-1.5352 -1.1041,-1.4182 -1.2612,-1.2881 -1.4051,-1.1449 -1.0582,-0.7075 -1.1174,-0.6273 -1.1718,-0.5426 -1.2215,-0.4541 -1.2668,-0.3603 -1.3076,-0.2633 -1.3436,-0.1607 -1.3751,-0.0548 -1.1807,0.0406 -1.1582,0.1202 -1.1324,0.1967 -1.1038,0.2707 -1.0727,0.3413 -1.0383,0.4096 -1.0012,0.4742 -0.9609,0.5369 -0.9661,0.6293 -0.9147,0.692 -0.8606,0.7508 -0.8031,0.8071 -0.7427,0.8592 -0.6777,0.9085 -0.6106,0.9544 -0.5397,0.9969 -1.933,-1.5409 -1.9709,-1.4828 -2.0086,-1.4233 -2.0438,-1.3626 -2.0772,-1.3008 -2.1096,-1.2376 -2.1399,-1.1733 -2.1682,-1.1072 -2.2158,-1.0496 -2.2419,-0.98 -2.2661,-0.9091 -2.2884,-0.837 -2.3091,-0.7631 -2.3283,-0.6885 -2.346,-0.6123 -2.3615,-0.5349 -2.8928,-0.5448 -2.9103,-0.4255 -2.9254,-0.3042 -2.937,-0.1797 -2.9457,-0.0541 -2.9506,0.0748 -2.9534,0.2061 -2.9529,0.339 -1.7798,0.2699 -1.7779,0.3203 -1.7757,0.3705 -1.7719,0.4212 -1.7682,0.4731 -1.7632,0.525 -1.7578,0.5774 -1.7523,0.631 -0.1429,-1.5373 -0.29,-1.4901 L 51.658,14.917 51.097,13.5422 50.4119,12.236 49.6097,11.0058 48.6972,9.8586 47.6827,8.8021 46.578,7.8471 45.3864,6.9965 44.1147,6.2569 42.7708,5.6358 41.3617,5.1398 39.8942,4.7772 38.376,4.5541 36.8144,4.4782 l -1.6132,0.081 -1.5667,0.2376 -1.5114,0.3869 -1.4488,0.5278 -1.3782,0.6611 -1.2994,0.786 -1.2124,0.9028 -1.1177,1.0126 -1.008,1.1049 -0.8989,1.1974 -0.7818,1.2815 -0.6573,1.3584 -0.5247,1.4269 -0.3847,1.4885 -0.2364,1.5415 -0.0805,1.5874 0.0575,1.3411 0.169,1.3099 0.2764,1.2733 0.3784,1.2325 0.4765,1.1871 0.5692,1.137 0.6573,1.082 0.7413,1.0227 0.8351,0.9746 0.9119,0.9034 0.9839,0.8274 1.0505,0.7461 1.1126,0.6605 1.1699,0.5692 1.2217,0.4739 1.2691,0.3731 -0.7543,1.1919 -0.7022,1.2076 -0.6502,1.2217 -0.5998,1.2354 -0.5502,1.2483 -0.5015,1.2609 -0.453,1.2728 -0.4056,1.2835 -0.648,2.4862 -0.4833,2.5189 -0.3249,2.5475 -0.1715,2.5713 -0.0246,2.5897 0.1165,2.6034 0.252,2.6132 0.3815,2.617 0.5908,3.0044 0.7449,2.9971 0.8901,2.982 1.0273,2.9597 1.1551,2.9299 1.2739,2.893 1.3847,2.8489 1.4854,2.7977 0.3571,0.6262 0.599,1.0117 0.8158,1.3297 1.0074,1.5801 1.1744,1.7634 1.3164,1.8788 1.4327,1.927 1.525,1.9077 1.7544,2.0339 1.7421,1.91 1.6518,1.7486 1.4839,1.5492 1.2382,1.311 0.9153,1.0352 0.5145,0.7217 0.0354,0.3694 -0.6789,0.5383 -0.6673,0.534 -0.6539,0.5312 -0.6409,0.5293 -0.6282,0.5278 -0.6142,0.5272 -0.6004,0.5273 -0.5865,0.5286 -1.2229,1.1498 -1.1588,1.1579 -1.0953,1.1696 -1.0304,1.186 -0.9666,1.2059 -0.9025,1.2305 -0.8391,1.2588 -0.7744,1.2915 -0.5553,1.023 -0.5171,1.0474 -0.479,1.0729 -0.4405,1.1005 -0.4028,1.1304 -0.3649,1.1616 -0.3265,1.1951 -0.2886,1.2306 -0.1698,0.8314 -0.153,0.8481 -0.1367,0.8657 -0.1202,0.8833 -0.0799,0.2707 -0.144,0.1119 -0.1998,-0.015 -0.2464,-0.1122 -0.5978,-0.3935 -0.6814,-0.4147 -1.4707,-0.6936 -1.4241,-0.6118 -1.3768,-0.5314 -1.3308,-0.4527 -1.285,-0.3768 -1.2387,-0.3016 -1.1937,-0.2296 -1.1489,-0.1584 -3.2859,-0.061 -2.8636,0.548 -2.4514,1.1004 -2.0488,1.5962 -1.6563,2.0349 -1.2731,2.418 -0.9,2.7439 -0.5363,3.0133 -0.1496,1.881 -0.029,1.9438 0.0905,1.9941 0.2075,2.0336 0.3228,2.0611 0.4357,2.0772 0.5471,2.0812 0.6562,2.0741 0.6486,1.7657 0.7265,1.7445 0.8031,1.7155 0.8779,1.6798 0.9521,1.6364 1.0245,1.5854 1.0955,1.5274 1.1662,1.4623 1.3864,1.5497 1.4712,1.4483 1.5537,1.3365 1.635,1.2147 1.7136,1.0817 1.7912,0.9391 1.8666,0.786 1.9406,0.6228 1.5899,0.3705 1.6345,0.2565 1.6781,0.1369 1.7206,0.0122 1.7623,-0.1176 1.8034,-0.2526 1.8434,-0.3926 1.8822,-0.5377 1.8079,-0.6441 1.8411,-0.782 1.8737,-0.9238 1.9052,-1.0701 1.9361,-1.2209 1.9667,-1.3754 1.9955,-1.5352 2.0245,-1.6983 0.1299,-0.153 0.125,-0.1749 0.0652,-0.0757 0.0694,-0.057 0.0763,-0.03 0.0839,0.005 0.8308,0.2361 0.8042,0.2262 0.779,0.2157 0.7546,0.2052 0.7321,0.1945 0.7107,0.1834 0.6911,0.1729 0.6721,0.1616 1.4235,0.3166 1.3547,0.2608 1.3008,0.2035 1.2614,0.1449 1.2365,0.0847 1.2271,0.0233 1.232,-0.0394 1.2512,-0.1041 1.046,-0.1332 1.0774,-0.178 1.116,-0.2228 1.1631,-0.2693 1.218,-0.3158 1.281,-0.3634 1.3521,-0.4119 1.4307,-0.4609 0.106,-0.055 0.1117,-0.0703 0.053,-0.0269 0.0484,-0.0136 0.0423,0.005 0.0337,0.0298 0.5718,0.8472 0.5751,0.8147 0.5788,0.7832 0.5826,0.7515 0.5853,0.7206 0.5888,0.6893 0.5918,0.6591 0.5945,0.629 2.3734,2.1983 2.4044,1.7552 2.4253,1.334 2.4355,0.9351 2.4361,0.5576 2.4268,0.2024 2.4069,-0.1313 2.3771,-0.4424 2.099,-0.6444 2.06,-0.8623 2.0131,-1.0635 1.9591,-1.2495 1.8978,-1.4193 1.8292,-1.5736 1.7532,-1.7121 1.6699,-1.8348 1.5775,-1.9389 1.4796,-2.0296 1.3748,-2.1048 1.2632,-2.1642 1.1432,-2.2074 1.017,-2.2354 0.883,-2.247 0.7419,-2.2439 0.5601,-2.0849 0.4243,-2.0551 0.2818,-2.0117 0.1338,-1.9559 -0.021,-1.8874 -0.1811,-1.8053 -0.3473,-1.7102 -0.5193,-1.6027 -0.8773,-1.7929 -1.1543,-1.5891 -1.4419,-1.3615 -1.7411,-1.1103 -2.0506,-0.8357 -2.3711,-0.5371 -2.7029,-0.2152 -3.0452,0.1307 -0.669,0.0717 -0.684,0.0876 -0.699,0.1035 -0.7141,0.1196 -0.7293,0.1363 -0.7453,0.1528 -0.7602,0.1695 -0.7761,0.1865 -0.1613,0.0684 -0.1775,0.0915 -0.0802,0.0332 -0.0666,0.0139 -0.0474,-0.0145 -0.0218,-0.051 -0.0964,-0.8408 -0.1133,-0.8246 -0.1307,-0.8092 -0.1474,-0.7943 -0.1636,-0.7798 -0.1803,-0.7654 -0.1958,-0.7517 -0.2118,-0.7387 -0.464,-1.4227 -0.5222,-1.3771 -0.5785,-1.3343 -0.6333,-1.2957 -0.6854,-1.2606 -0.7364,-1.2294 -0.7847,-1.201 -0.8311,-1.1767 -0.6347,-0.8452 -0.6573,-0.8363 -0.6798,-0.8274 -0.7007,-0.8209 -0.7217,-0.8155 -0.7412,-0.8122 -0.7606,-0.809 -0.7787,-0.8084 -2.8,-2.7831 0.1295,-0.2077 0.4975,-0.4054 0.7569,-0.5417 0.9087,-0.6157 0.9516,-0.6281 0.8867,-0.5783 0.7135,-0.4666 0.4314,-0.2928 1.1704,-0.8683 1.1668,-0.8983 1.1625,-0.9275 1.1562,-0.9555 1.1486,-0.9834 1.1404,-1.0097 1.1296,-1.0363 1.118,-1.061 1.2319,-1.2121 1.2135,-1.2413 1.1934,-1.2694 1.1716,-1.2962 1.1475,-1.3218 1.1216,-1.3468 1.0933,-1.37 1.0642,-1.3926 1.1276,-1.5486 1.0874,-1.5726 1.0442,-1.5951 0.9984,-1.6163 0.9502,-1.6359 0.8994,-1.654 0.8464,-1.671 0.7901,-1.6861 0.7903,-1.8422 0.7183,-1.8561 0.6434,-1.8695 0.5652,-1.8794 0.4836,-1.8881 0.3989,-1.895 0.3112,-1.9003 0.22,-1.9032 0.0743,-0.9476 0.0504,-0.9471 0.0267,-0.9476 0.002,-0.9471 -0.0232,-0.9462 -0.0485,-0.9459 -0.0742,-0.9445 -0.1001,-0.9434 z m -47.1855,-31.949 0.7444,0.0751 0.6933,0.2152 0.6276,0.3407 0.5468,0.451 0.451,0.5468 0.3407,0.6276 0.2152,0.6934 0.0751,0.7443 -0.0751,0.7444 -0.2152,0.6937 -0.3407,0.6275 -0.451,0.5469 -0.5468,0.4507 -0.6276,0.3407 -0.6933,0.2151 -0.7444,0.0752 -0.7444,-0.0752 -0.6936,-0.2151 -0.6276,-0.3407 -0.5465,-0.4507 -0.451,-0.5469 -0.3408,-0.6275 -0.2151,-0.6937 -0.0751,-0.7444 0.0751,-0.7443 0.2151,-0.6934 0.3408,-0.6276 0.451,-0.5468 0.5465,-0.451 0.6276,-0.3407 0.6936,-0.2152 0.7444,-0.0751 z m 12.8245,29.6076 1.1959,0.8246 1.1543,0.7126 1.0845,0.5894 0.9879,0.4544 0.8631,0.3087 0.7113,0.1513 0.5317,-0.0175 0.3246,-0.1976 0.0873,-0.3699 -0.148,-0.5108 -0.3639,-0.6293 -0.561,-0.7254 -0.7381,-0.7985 -0.8964,-0.849 -1.0352,-0.8768 -1.1542,-0.8815 -1.196,-0.8246 -1.1542,-0.7127 -1.0851,-0.5893 -0.9879,-0.4544 -0.8632,-0.3087 -0.7112,-0.1514 -0.5315,0.0179 -0.3245,0.1976 -0.0874,0.3699 0.148,0.5108 0.364,0.6293 0.5607,0.7254 0.7387,0.7982 0.8963,0.849 1.0349,0.8767 1.1546,0.8816 z m -30.5983,-6.6047 1.3793,-0.4561 1.2648,-0.4898 1.1245,-0.5091 0.959,-0.5131 0.7671,-0.502 0.5499,-0.4757 0.307,-0.4345 0.0382,-0.3779 -0.242,-0.2928 -0.4967,-0.1905 -0.7214,-0.0898 -0.917,0.0096 -1.082,0.1063 -1.218,0.2024 -1.3238,0.2956 -1.3998,0.3884 -1.3793,0.4558 -1.2648,0.4898 -1.1248,0.5091 -0.9584,0.5131 -0.7673,0.502 -0.5499,0.4757 -0.307,0.4342 -0.0383,0.3782 0.2421,0.2931 0.4966,0.1905 0.7214,0.0895 0.9167,-0.0093 1.0826,-0.1066 1.2175,-0.2021 1.3238,-0.2962 1.4,-0.3878 z m 12.8103,39.0835 1.3065,0.4694 1.3158,0.5596 1.304,0.6418 1.2702,0.7143 1.2149,0.779 1.1378,0.8353 1.0398,0.8833 0.9193,0.9224 0.8351,1.0329 0.642,1.0582 0.4215,1.0732 0.1732,1.0772 -0.1015,1.0698 -0.4042,1.0528 -0.7344,1.0247 -1.0914,0.9853 -0.6931,0.4833 -0.7715,0.4689 -0.8422,0.4515 -0.9046,0.4332 -0.9586,0.4121 -1.0052,0.3889 -1.0437,0.364 -1.0741,0.337 -1.538,0.4218 -1.5602,0.3597 -1.5599,0.2909 -1.5373,0.2171 -1.4935,0.1372 -1.4273,0.0525 -1.3391,-0.0383 -1.2294,-0.1349 -1.0459,-0.2243 -1.0925,-0.3427 -1.1274,-0.4498 -1.1491,-0.5471 -1.1602,-0.6336 -1.1591,-0.7086 -1.1464,-0.7736 -1.1219,-0.828 -0.8204,-0.6525 -0.7945,-0.6721 -0.7645,-0.688 -0.7282,-0.6987 -0.6874,-0.7053 -0.6421,-0.7075 -0.5907,-0.7047 -0.5355,-0.6976 -1.0519,-1.7371 -0.5301,-1.5738 -0.0592,-1.4128 0.3622,-1.256 0.7336,-1.103 1.0545,-0.9538 1.3258,-0.8071 1.5466,-0.6655 0.9793,-0.322 1.0273,-0.2764 1.065,-0.231 1.0933,-0.1863 1.1118,-0.1426 1.1202,-0.0992 1.1191,-0.057 1.1084,-0.0147 1.707,0.0332 1.5755,0.0859 1.4848,0.144 1.4363,0.2072 1.4289,0.2766 1.463,0.3518 1.5381,0.4315 1.6554,0.5181 z m 2.4381,-11.9276 0.7126,0.0717 0.6642,0.2064 0.6006,0.3257 0.5236,0.432 0.4314,0.5235 0.3263,0.6007 0.2064,0.6639 0.0717,0.7123 -0.0717,0.7129 -0.2064,0.6639 -0.3263,0.6007 -0.4314,0.5235 -0.5236,0.432 -0.6006,0.3257 -0.6642,0.2064 -0.7126,0.0717 -0.7126,-0.0717 -0.6636,-0.2064 -0.601,-0.3257 -0.5232,-0.432 -0.432,-0.5235 -0.326,-0.6007 -0.2061,-0.6639 -0.0717,-0.7129 0.0717,-0.7123 0.2061,-0.6639 0.326,-0.6007 0.432,-0.5235 0.5232,-0.432 0.601,-0.3257 0.6636,-0.2064 0.7126,-0.0717 z m -14.3473,-3.119 0.7126,0.072 0.6642,0.2061 0.6007,0.326 0.5232,0.4317 0.432,0.5236 0.3257,0.6004 0.2064,0.6641 0.0717,0.7126 -0.0717,0.7127 -0.2064,0.6638 -0.3257,0.601 -0.432,0.5233 -0.5232,0.4317 -0.6007,0.3263 -0.6642,0.2057 -0.7126,0.072 -0.7123,-0.072 -0.6639,-0.2057 -0.6007,-0.3263 -0.5235,-0.4317 -0.432,-0.5233 -0.326,-0.601 -0.2061,-0.6638 -0.0717,-0.7127 0.0717,-0.7126 0.2061,-0.6641 0.326,-0.6004 0.432,-0.5236 0.5235,-0.4317 0.6007,-0.326 0.6639,-0.2061 0.7123,-0.072 z"
     style="fill:none;fill-rule:evenodd;stroke:#000000;stroke-width:1;stroke-linecap:butt;stroke-linejoin:bevel;stroke-dasharray:none;stroke-miterlimit:4"
     id="path4485"
     inkscape:connector-curvature="0" />
</svg>
