<?xml version="1.0" encoding="UTF-8" standalone="no"?>
<svg
   xmlns:dc="http://purl.org/dc/elements/1.1/"
   xmlns:cc="http://creativecommons.org/ns#"
   xmlns:rdf="http://www.w3.org/1999/02/22-rdf-syntax-ns#"
   xmlns:svg="http://www.w3.org/2000/svg"
   xmlns="http://www.w3.org/2000/svg"
   xmlns:sodipodi="http://sodipodi.sourceforge.net/DTD/sodipodi-0.dtd"
   xmlns:inkscape="http://www.inkscape.org/namespaces/inkscape"
   version="1.1"
   width="577.23108"
   height="396.9704"
   id="svg4529"
   viewBox="0 0 577.23108 396.9704"
   sodipodi:docname="ramka.svg"
   inkscape:version="0.92.1 r15371">
  <metadata
     id="metadata4535">
    <rdf:RDF>
      <cc:Work
         rdf:about="">
        <dc:format>image/svg+xml</dc:format>
        <dc:type
           rdf:resource="http://purl.org/dc/dcmitype/StillImage" />
        <dc:title></dc:title>
      </cc:Work>
    </rdf:RDF>
  </metadata>
  <defs
     id="defs4533" />
  <sodipodi:namedview
     pagecolor="#ffffff"
     bordercolor="#666666"
     borderopacity="1"
     objecttolerance="10"
     gridtolerance="10"
     guidetolerance="10"
     inkscape:pageopacity="0"
     inkscape:pageshadow="2"
     inkscape:window-width="1600"
     inkscape:window-height="878"
     id="namedview4531"
     showgrid="false"
     fit-margin-top="0"
     fit-margin-left="0"
     fit-margin-right="0"
     fit-margin-bottom="0"
     inkscape:zoom="1.1212869"
     inkscape:cx="312.80342"
     inkscape:cy="241.80562"
     inkscape:window-x="-8"
     inkscape:window-y="-8"
     inkscape:window-maximized="1"
     inkscape:current-layer="svg4529" />
  <path
     d="m 211.72266,279.6067 36.2675,0.005 -0.9263,-0.3886 -1.3598,-0.6613 -0.4884,-0.2792 -0.4788,-0.2855 -0.4688,-0.2922 -0.4595,-0.2985 -0.4493,-0.3048 -0.4397,-0.3109 -0.4297,-0.3172 -0.4198,-0.3232 -0.7118,-0.5811 -0.6812,-0.5986 -0.6499,-0.6166 -0.6191,-0.6335 -0.3473,-0.3779 -0.3364,-0.3835 -0.326,-0.3892 -0.315,-0.3946 -0.3041,-0.4 -0.2934,-0.405 -0.2823,-0.4105 -0.2716,-0.4155 -0.3886,-0.6364 -0.3637,-0.6474 -0.3385,-0.6585 -0.3132,-0.669 -0.2874,-0.6792 -0.2622,-0.6894 -0.2364,-0.699 -0.2104,-0.7087 -0.1717,-0.6636 -0.1491,-0.6715 -0.127,-0.6786 -0.1044,-0.686 -0.0819,-0.6928 -0.0589,-0.6996 -0.0363,-0.7061 -0.0133,-0.7123 0.007,-0.6055 0.0232,-0.6097 0.0397,-0.6137 0.0561,-0.6177 0.0726,-0.6214 0.0896,-0.625 0.1063,-0.6282 0.1227,-0.6318 0.0876,-0.4053 0.0941,-0.4068 0.1012,-0.4076 0.1083,-0.4091 0.1148,-0.4104 0.1222,-0.4113 0.1289,-0.4125 0.1358,-0.4133 0.237,-0.6885 0.2409,-0.6863 0.2449,-0.6831 0.2713,-0.7385 0.2798,-0.737 0.2917,-0.7327 0.3053,-0.726 0.2154,-0.4881 0.2455,-0.5182 0.1332,-0.2579 0.14,-0.2503 0.1466,-0.237 0.1253,-0.18 -0.0729,-0.464 -0.1046,-0.5216 -0.1281,-0.5318 -0.1499,-0.5332 -0.1695,-0.5258 -0.1869,-0.5102 -0.2023,-0.4856 -0.2152,-0.453 -0.1984,-0.3659 -0.2217,-0.3595 -0.2455,-0.3458 -0.2701,-0.3243 -0.2982,-0.2971 -0.3223,-0.2596 -0.3495,-0.2169 -0.33,-0.1457 -0.3478,0.2628 -0.3954,0.3232 -0.3946,0.3444 -0.3889,0.3594 -0.3796,0.3688 -0.3662,0.3727 -0.3492,0.3717 -0.328,0.3645 -0.6517,0.7778 -0.6137,0.8164 -0.5666,0.8524 -0.5111,0.8855 -0.4468,0.9167 -0.3727,0.9454 -0.2909,0.9714 -0.1981,0.9882 0.2494,2.6498 0.1029,2.5985 -0.0496,2.5271 -0.2072,2.45 -0.3693,2.3675 -0.5361,2.2796 -0.7081,2.1858 -0.8846,2.0869 -1.086,2.0154 -1.2787,1.9009 -1.4689,1.7731 -0.007,0.007 -1.6781,1.654 -1.8842,1.5213 -2.096,1.3834 -2.3119,1.2393 -2.0735,0.8923 v 0 z m -20.3664,-44.8322 -0.007,36.4992 0.3972,-0.9405 0.6298,-1.3893 0.667,-1.3751 0.7024,-1.3589 0.7362,-1.3405 0.769,-1.3198 0.8005,-1.2972 0.8312,-1.2733 1.8323,-2.5685 2.069,-2.5562 2.2907,-2.4574 0.4952,-0.4473 0.4946,-0.4397 0.4947,-0.432 0.4955,-0.4232 0.4963,-0.4138 0.4978,-0.4042 0.4997,-0.3941 0.502,-0.3829 0.5525,-0.4057 0.5562,-0.3909 0.5612,-0.3755 0.5667,-0.3598 0.5723,-0.343 0.5791,-0.3254 0.5862,-0.307 0.5941,-0.288 0.6265,-0.2783 0.6364,-0.256 0.6468,-0.233 0.6582,-0.2092 0.6702,-0.1843 0.6825,-0.1584 0.6962,-0.1321 0.7101,-0.1046 0.4113,-0.0473 0.4164,-0.0377 0.4213,-0.0284 0.4266,-0.0187 0.432,-0.009 0.4371,0.001 0.443,0.0114 0.4485,0.0215 0.7639,0.0825 0.76,0.1199 0.756,0.1571 0.6661,0.1717 0.5888,-1.2265 0.6361,-1.3005 0.6468,-1.2983 0.6571,-1.2943 0.6667,-1.2895 0.6758,-1.283 0.684,-1.2753 0.6916,-1.2659 0.3365,-0.6069 0.3399,-0.6055 0.3433,-0.6043 0.3475,-0.6018 0.3521,-0.5998 0.3568,-0.5962 0.3626,-0.593 0.3676,-0.5887 0.2642,-0.415 0.2719,-0.4198 0.2798,-0.4221 0.288,-0.4212 0.2956,-0.4165 0.3039,-0.409 0.3115,-0.3983 0.1296,-0.1561 -0.2447,0.0527 -0.5556,0.0921 -0.5709,0.0695 -0.5785,0.0473 -0.5772,0.0252 -0.5674,0.003 -0.5497,-0.0181 -0.4691,-0.0355 -0.3793,0.4199 -0.4297,0.4484 -0.4391,0.4382 -0.44,0.4261 -0.5462,0.5133 -0.5564,0.5043 -0.5664,0.4944 -0.5757,0.4841 -0.5845,0.4731 -0.5936,0.4618 -0.6015,0.4493 -0.6109,0.4382 -0.5831,0.379 -0.576,0.3614 -0.5691,0.3439 -0.5622,0.3265 -0.5561,0.3096 -0.5502,0.2928 -0.5448,0.2764 -0.5395,0.2602 -0.6466,0.2937 -0.64,0.271 -0.6344,0.2483 -0.6293,0.2267 -0.6245,0.2053 -0.6208,0.1842 -0.6173,0.1639 -0.6146,0.144 -0.8481,0.1672 -0.8456,0.131 -0.8453,0.0964 -0.8464,0.0629 -0.849,0.0306 -0.8535,-6e-4 -0.8598,-0.03 -0.8674,-0.0584 -0.7058,-0.0669 -0.7126,-0.0842 -0.7206,-0.1001 -0.7293,-0.1159 -0.739,-0.131 -0.7495,-0.1451 -0.7608,-0.1587 -0.7733,-0.1718 -0.65,-0.1514 -0.6593,-0.1596 -0.6696,-0.1672 -0.68,-0.1746 -0.6911,-0.1815 -0.7024,-0.1882 -0.7146,-0.1941 -0.7271,-0.1999 -2.092,-0.6616 -1.9318,-0.6928 v 0 z m 64.3986,-117.9354 -0.4113,-0.2551 -0.8481,-0.4805 -0.8683,-0.4516 -0.8835,-0.4226 -0.8915,-0.3932 -0.8929,-0.3637 -0.8876,-0.3333 -1.2682,-0.4314 -1.2841,-0.3839 -1.2991,-0.337 -1.311,-0.2891 -1.3207,-0.2407 -1.328,-0.1916 -1.3329,-0.1423 -1.3391,-0.0927 -0.6193,-0.0488 -0.6143,-0.083 -0.6094,-0.1162 -0.6044,-0.1489 -0.9748,-0.3098 -0.9468,-0.3835 -0.9181,-0.4502 -0.8887,-0.5091 -0.8578,-0.5604 -0.8268,-0.6049 -0.7946,-0.6417 -0.7619,-0.6719 -0.902,-0.8662 -0.8691,-0.9097 -0.8365,-0.9473 -0.8039,-0.9794 -0.7711,-1.006 -0.7381,-1.027 -0.7055,-1.042 -0.6721,-1.051104 -0.3073,-0.4992 -0.3067,-0.5091 -0.3036,-0.5179 -0.2985,-0.5244 -0.2908,-0.5289 -0.2812,-0.5318 -0.269,-0.5323 -0.2387,-0.4984 -1.0721,-0.5422 -0.0159,-0.01 -1.1755,-0.8949 -0.008,-0.007 -1.2112,-1.1508 -1.198,-1.313 -1.1437,-1.3887 -1.0486,-1.3782 -0.911,-1.2804 -0.6908,-1.0341 -3.0376,0.7937 -3.1278,1.0882 -3.1201,1.3207 -3.0827,1.5094 -3.0157,1.654 -2.918,1.7547 -2.7922,1.8116 -2.5939,1.796 V 202.5223 h 1.7393 l 0.0714,0.0298 0.1015,0.1011 0.0295,0.0718 -0.005,28.5868 0.5454,-0.5899 0.5692,-0.5774 0.5924,-0.5647 0.6143,-0.5516 0.3943,-0.3384 0.402,-0.3328 0.4093,-0.328 0.4167,-0.3226 0.4232,-0.3172 0.4297,-0.3118 0.436,-0.3067 0.4419,-0.301 0.489,-0.3226 0.4949,-0.3158 0.5012,-0.3093 0.5065,-0.3024 0.5117,-0.2957 0.5162,-0.2891 0.5204,-0.2818 0.5244,-0.2749 0.4947,-0.2515 0.4972,-0.2449 0.4997,-0.2387 0.5017,-0.2324 0.5038,-0.2259 0.5048,-0.2194 0.5063,-0.2132 0.5068,-0.2063 0.6588,-0.2586 0.6588,-0.2469 0.6582,-0.2358 0.6567,-0.2242 0.6548,-0.2129 0.652,-0.201 0.6486,-0.1896 0.6443,-0.1772 0.8535,-0.2174 0.8524,-0.1953 0.8492,-0.1721 0.8453,-0.1479 0.8402,-0.1225 0.8331,-0.0958 0.8252,-0.0686 0.8152,-0.0397 0.8431,-0.01 0.8294,0.0244 0.8144,0.0592 0.7976,0.0958 0.7796,0.1335 0.7597,0.1727 0.7378,0.2128 0.7152,0.254 0.4158,0.1724 0.4068,0.1879 0.3974,0.2035 0.3875,0.2197 0.3773,0.2361 0.3671,0.2529 0.356,0.2696 0.3453,0.2866 0.7248,0.7457 0.6696,0.8051 0.5785,0.8056 0.6744,-0.0377 0.7395,-0.0692 0.7382,-0.0912 0.7211,-0.1058 0.7668,-0.1295 0.769,-0.1508 0.7682,-0.1738 0.7639,-0.1976 0.7569,-0.2233 0.7449,-0.2498 0.7302,-0.2778 0.7132,-0.3072 0.4746,-0.2277 0.468,-0.2452 0.4586,-0.2639 0.4467,-0.2831 0.4326,-0.3036 0.4156,-0.3243 0.3957,-0.3458 0.375,-0.3691 1.442,-1.5109 1.4493,-1.5111 1.4602,-1.5052 1.474,-1.4939 1.491,-1.4768 1.5106,-1.4542 1.5338,-1.4256 0.0437,-0.0391 -0.2455,-0.2446 -4.9354,-5.3291 -0.769,-0.8901 -0.7674,-0.8918 -0.7645,-0.894 -0.7614,-0.8966 -0.758,-0.8998 -0.7537,-0.9031 -0.7495,-0.9071 -0.7441,-0.911 -0.5666,-0.7022 -0.563,-0.7052 -0.5587,-0.7081 -0.555,-0.7115 -0.5502,-0.7152 -0.5454,-0.7189 -0.5403,-0.7225 -0.5352,-0.7265 -0.532,-0.7345 -0.5261,-0.7387 -0.5202,-0.743 -0.5133,-0.7472 -0.5072,-0.7517 -0.5,-0.7563 -0.4932,-0.7611 -0.4859,-0.7656 -0.6131,-0.9905 -0.6001,-0.9978 -0.5871,-1.0051 -0.5737,-1.0126 -0.5607,-1.0201 -0.5474,-1.0273 -0.5337,-1.035 -0.5202,-1.042 -0.3163,-0.6525 -0.3107,-0.6548 -0.3042,-0.6576 -0.2976,-0.6602 -0.2905,-0.6636 -0.2832,-0.667 -0.2756,-0.6704 -0.2675,-0.6738 -0.2997,-0.7846 -0.2883,-0.7883 -0.2769,-0.792 -0.2662,-0.7955 -0.2557,-0.7985 -0.2454,-0.8022 -0.2353,-0.8059 -0.2257,-0.809 -0.18,-0.6758 -0.1723,-0.6771 -0.1636,-0.6789 -0.1544,-0.6806 -0.1449,-0.6826 -0.1349,-0.6852 -0.1242,-0.6874 -0.1128,-0.6902 -0.1466,-1.0327 -0.1196,-1.0329 -0.0944,-1.0332 -0.07,-1.0344 -0.0468,-1.0358 -0.0249,-1.0375 -0.004,-1.04 0.0159,-1.0426 0.025,-0.7381 0.0396,-0.7345 0.0547,-0.7313 0.0712,-0.7288 0.0882,-0.7268 0.1057,-0.7254 0.1241,-0.7245 0.1438,-0.7246 0.2367,-1.0247 0.2718,-1.0134 0.3039,-1.0031 0.3333,-0.9933 0.3606,-0.9842 0.3849,-0.9757 0.4068,-0.9677 0.4258,-0.9604 0.3787,-0.8082 0.3951,-0.7897 0.4136,-0.7727 0.4346,-0.7577 0.4569,-0.7441 0.4819,-0.7319 0.5088,-0.7217 0.538,-0.7127 0.6112,-0.7577 0.6346,-0.7389 0.6554,-0.7217 0.6741,-0.7053 0.6897,-0.69 0.7032,-0.676 0.7141,-0.663 0.7228,-0.6514 0.5412,-0.472 0.5476,-0.4589 0.5556,-0.4462 0.5635,-0.4334 0.5735,-0.4207 0.5833,-0.4085 0.595,-0.3965 0.6069,-0.3844 0.7487,-0.4482 0.7597,-0.4291 0.7693,-0.4116 0.7778,-0.3949 0.7858,-0.3798 0.7923,-0.3663 0.7976,-0.3537 0.8022,-0.3427 0.7413,-0.3051 0.7461,-0.2939 0.7511,-0.2806 0.7563,-0.2665 0.6115,-0.2018 0.6134,-0.1905 0.6162,-0.1789 0.6188,-0.1675 0.6217,-0.1559 0.6253,-0.1446 0.6287,-0.1332 0.6324,-0.1216 0.4828,-0.085 0.4838,-0.0788 0.4845,-0.0729 0.4856,-0.0669 0.4861,-0.0618 0.4867,-0.0567 0.4876,-0.0519 0.4878,-0.047 v 0 z m 90.0352,70.1694 -0.9939,1.5667 -3.7859,5.2132 -3.9654,4.9564 -4.7254,5.4589 -4.9354,5.3286 -5.1054,5.2118 -5.2365,5.108 -5.3277,5.0173 -5.3793,4.94 -5.3912,4.8755 -5.3643,4.8246 -6.3859,5.7467 h -0.1355 l -6.3856,-5.7467 -5.3646,-4.8248 -5.3915,-4.8759 -5.3798,-4.9402 -5.328,-5.0176 -5.1557,-5.0381 -0.6417,0.4448 -0.8099,0.5749 -0.8033,0.5833 -0.7971,0.5913 -0.7903,0.5987 -0.7824,0.6049 -1.1874,0.9423 -1.1747,0.9637 -1.16,0.9862 -1.1415,1.0086 -1.1205,1.0312 -1.0967,1.0542 -1.0701,1.0775 -1.0406,1.101 -0.7146,0.7914 -0.7013,0.809 -0.684,0.8266 -0.6642,0.8436 -0.6412,0.8609 -0.6145,0.8776 -0.5854,0.8946 -0.5187,0.8546 0.6571,0.8499 0.7993,1.1012 0.8405,1.2396 0.8226,1.3215 0.7458,1.3459 0.6063,1.3042 0.004,0.0102 0.4108,1.2113 0.004,0.0178 0.1508,1.0265 0.3447,0.3342 0.3662,0.371 0.3623,0.3807 0.3569,0.3884 0.3512,0.3934 0.3441,0.3957 0.3359,0.3957 0.3274,0.3938 0.6829,0.8504 0.6653,0.8753 0.6432,0.8986 0.6162,0.9204 0.5845,0.9405 0.5482,0.959 0.5072,0.976 0.4612,0.991 0.4286,1.0564 0.3682,1.0837 0.2962,1.1058 0.212,1.1222 0.1168,1.133 0.009,1.1277 -6e-4,0.0105 -0.1085,1.1262 -0.002,0.0113 -0.2396,1.1231 -0.3319,1.3138 -0.2758,1.3306 -0.2197,1.3445 -0.1624,1.3541 -0.1049,1.3598 -0.0465,1.3612 0.0125,1.3589 0.0725,1.353 0.0754,0.8345 0.1075,0.8861 0.1423,0.9173 0.1797,0.9264 0.22,0.9159 0.2627,0.8841 0.3084,0.8319 0.3325,0.7087 h 106.2145 v -61.0585 l 0.0295,-0.0718 0.1012,-0.1012 0.0717,-0.0297 h 51.3116 l 0.003,-28.7232 -1.2991,0.6395 -1.5197,0.6375 -1.5758,0.5641 -0.4237,0.1273 -0.4258,0.1244 -0.4275,0.1216 -0.4291,0.1182 -0.4312,0.1151 -0.4326,0.1117 -0.4339,0.108 -0.4352,0.104 -2.7232,0.5519 -0.5839,0.0944 -0.5848,0.0854 -0.5854,0.0759 -0.5853,0.0661 -0.5857,0.0558 -0.585,0.0456 -0.5848,0.0346 -0.584,0.0233 -0.3982,0.009 -0.3977,0.004 -0.3975,-0.002 -0.3965,-0.008 -0.3955,-0.0139 -0.3948,-0.0198 -0.394,-0.0258 -0.3926,-0.0321 -0.4686,-0.047 -0.4669,-0.0561 -0.4649,-0.0661 -0.4631,-0.0757 -0.4607,-0.0856 -0.4586,-0.0958 -0.4561,-0.106 -0.4538,-0.1168 -0.4641,-0.1312 -0.4606,-0.1432 -0.4581,-0.1548 -0.4546,-0.1672 -0.4513,-0.1792 -0.4476,-0.1919 -0.4439,-0.2046 -0.44,-0.2174 -0.3829,-0.2019 -0.3799,-0.2123 -0.3764,-0.2225 -0.373,-0.2333 -0.3697,-0.2441 -0.3659,-0.2551 -0.3623,-0.2661 -0.3586,-0.2773 -0.009,-0.008 -0.3554,-0.3575 -0.3359,-0.3722 -0.3167,-0.3863 -0.297,-0.4005 -0.2773,-0.4145 -0.2574,-0.4277 -0.2369,-0.4414 -0.1795,-0.375 -0.8257,0.2092 -0.9099,0.2234 -0.9133,0.2171 -0.9153,0.2103 -0.9171,0.2036 -0.9175,0.1967 -0.917,0.1893 -0.9162,0.1815 -0.4428,0.0853 -0.4439,0.0827 -0.4444,0.0803 -0.4454,0.0776 -0.4459,0.0743 -0.4467,0.0703 -0.4467,0.0663 -0.4476,0.0618 -0.614,0.0774 -0.6307,0.0666 -0.6364,0.046 -0.3487,0.009 0.0525,0.0423 0.2656,0.2341 0.2608,0.2492 0.2528,0.2599 0.2421,0.2676 0.2279,0.271 0.2109,0.2704 0.1604,0.2242 1.5356,0.1174 0.4844,0.0587 0.4847,0.0677 0.4833,0.0765 0.4822,0.0857 0.4808,0.0949 0.4782,0.1038 0.4759,0.1131 0.4745,0.1227 1.2308,0.3682 1.2172,0.4453 1.1872,0.5284 0.6885,0.394 0.6551,0.419 0.6228,0.4425 0.5924,0.4654 0.33,0.2798 0.3203,0.2869 0.311,0.2939 0.3021,0.3008 0.2934,0.3073 0.2852,0.3135 0.2769,0.32 0.269,0.326 0.4621,0.5967 0.4393,0.6143 0.4187,0.6309 0.3991,0.6466 0.9329,1.696 1.2314,2.6535 1.2268,3.0342 0.4241,1.2303 0.006,0.0379 -0.004,0.0851 -0.0394,0.0751 -0.0675,0.0516 -0.0436,0.0195 -0.377,0.0678 -0.3974,0.0439 -0.3975,0.0253 -0.3775,0.0121 -0.5159,3e-4 -0.5174,-0.019 -0.5176,-0.0365 -0.5164,-0.0542 -0.5148,-0.0697 -0.5114,-0.0848 -0.5074,-0.0989 -0.4348,-0.104 -0.4584,-0.1247 -0.4793,-0.1438 -0.4983,-0.1624 -0.5157,-0.1808 -0.5309,-0.1985 -0.544,-0.2151 -0.5553,-0.2319 -0.6905,-0.3041 -0.7007,-0.3269 -0.7073,-0.3481 -0.7103,-0.3682 -0.7268,-0.3968 -0.722,-0.4159 -0.7138,-0.4331 -0.7013,-0.4496 -1.9454,-1.4 -0.6259,-0.5117 -0.593,-0.5227 -0.5564,-0.5323 -0.5154,-0.5409 -0.2987,-0.3404 -0.2804,-0.3433 -0.2608,-0.3453 -0.2406,-0.3472 -0.2189,-0.3489 -0.1964,-0.3498 -0.1732,-0.3513 -0.1485,-0.3515 -0.003,-0.01 -0.1789,-0.6599 -0.1111,-0.6678 -0.0474,-0.6735 0.0131,-0.6758 0.0691,-0.6749 0.1217,-0.6724 0.155,-0.6055 -0.2818,-0.301 -0.3376,-0.3342 -0.3481,-0.3252 -0.3472,-0.3107 -0.3824,-0.3268 -0.3937,-0.3192 -0.4042,-0.3092 -0.4148,-0.2971 -0.4243,-0.2829 -0.4323,-0.2659 -0.4402,-0.2472 -0.4473,-0.2265 -0.3081,-0.1406 -0.3147,-0.1301 -0.3195,-0.1179 -0.3242,-0.1037 -0.328,-0.0885 -0.3311,-0.0714 -0.3336,-0.053 -0.3368,-0.0329 -0.9655,-0.0641 -0.9649,-0.0657 -0.9646,-0.0686 -0.9641,-0.0732 -0.9637,-0.0785 -0.9638,-0.085 -0.9632,-0.0933 -0.9633,-0.1026 -0.7205,-0.0825 -0.7265,-0.0893 -0.7302,-0.0972 -0.7308,-0.1074 -0.7291,-0.1194 -0.7248,-0.1329 -0.2908,-0.0598 v 0 z m -274.549599,15.5148 -0.875995,-0.5031 -1.1973,-0.7033 -1.1911,-0.7129 -1.186,-0.7209 -1.1818,-0.7276 -1.1787,-0.7325 -1.1766,-0.7367 -1.173,-0.7373 -0.4226,-0.248 -0.436,-0.2217 -0.4487,-0.1979 -0.4595,-0.1751 -0.4677,-0.154 -0.4743,-0.1335 -0.4785,-0.1148 -0.4796,-0.0966 -0.7132,-0.1148 -0.7228,-0.0842 -0.7294,-0.0556 -0.7324,-0.0289 -0.7345,-0.004 -0.7333,0.0184 -0.7288,0.0394 -0.722,0.0578 -0.6744,0.0692 -0.6848,0.0859 -0.6832,0.106 -0.6148,0.119 -0.3401,0.8626 -0.4221,0.8805 -0.4859,0.8396 -0.5516,0.7925 -0.6191,0.739 -0.6809,0.6718 -0.0073,0.007 -0.7512,0.6057 -0.0088,0.006 -0.8297,0.5366 -0.2605,0.1434 -0.2818,0.1426 -0.2988,0.1389 -0.3118,0.1324 -0.32,0.1233 -0.2494,0.0853 27.719995,8e-4 v 0 z M 565.18646,113.7028 h -144.4093 v 93.7746 h 144.4093 z M 84.095261,47.208296 V 191.6173 H 177.86986 V 47.208296 Z M 179.81186,214.0671 H 35.402566 V 307.842 H 179.81186 Z m 166.9377,77.0843 h -144.4091 v 93.7746 h 144.4091 z m 22.5133,-61.2613 v 144.4091 h 93.7749 V 229.8901 Z m -80.1368,2.7519 2.6555,-2.3751 2.7212,-2.4384 2.7167,-2.4437 2.7091,-2.4517 2.6994,-2.4625 2.6864,-2.476 2.6714,-2.492 2.6527,-2.5112 2.4596,-2.3644 2.4423,-2.3902 2.4194,-2.4176 2.391,-2.448 2.3559,-2.4801 2.3162,-2.5151 2.27,-2.5521 2.2178,-2.5908 3.4007,-4.2055 3.3078,-4.466 2.0508,-3.1535 0.3819,-0.6038 0.3778,-0.6058 0.3742,-0.608 0.3693,-0.6112 0.3646,-0.6137 0.3591,-0.6171 0.3535,-0.6202 0.3472,-0.6242 0.4142,-0.7659 0.4034,-0.7705 0.3923,-0.7755 0.3812,-0.7804 0.3705,-0.786 0.3595,-0.7912 0.3483,-0.7968 0.3376,-0.8028 0.2651,-0.6528 0.2577,-0.6551 0.25,-0.6576 0.2415,-0.6605 0.2327,-0.6636 0.2237,-0.667 0.2137,-0.6707 0.2035,-0.6746 0.1806,-0.6333 0.1706,-0.6349 0.1616,-0.6372 0.1522,-0.6395 0.1426,-0.6415 0.1335,-0.6438 0.1247,-0.6457 0.1157,-0.648 0.0947,-0.5726 0.0881,-0.5735 0.0811,-0.5745 0.0734,-0.5752 0.0652,-0.5763 0.0564,-0.5771 0.0471,-0.5783 0.0374,-0.5797 0.0394,-2.6855 -0.1057,-1.2849 -0.1752,-1.2739 -0.2438,-1.2609 -0.3124,-1.2458 -0.3795,-1.2285 -0.4465,-1.2102 -0.5122,-1.188 -0.915,-1.7835 -1.0497,-1.6982 -1.1755,-1.6087 -1.2929,-1.5148 -1.4015,-1.4174 -1.5009,-1.3155 -1.5917,-1.2096 -1.6732,-1.0992 -1.8922,-1.0613 -1.9559,-0.9202 -2.0123,-0.7789 -0.5822,-0.1778 -0.5837,-0.172 -0.5851,-0.1656 -0.587,-0.1579 -0.5893,-0.1493 -0.5919,-0.1401 -0.5944,-0.1292 -0.5973,-0.118 -0.7282,-0.1255 -0.7274,-0.106 -0.7274,-0.0873 -0.7279,-0.0698 -0.7296,-0.0533 -0.7319,-0.0382 -0.7345,-0.0239 -0.7387,-0.0104 -0.5956,8e-4 -0.5955,0.0105 -0.595,0.0201 -0.595,0.0295 -0.5941,0.0397 -0.5933,0.0499 -0.5925,0.0598 -0.5916,0.0703 -0.6193,0.085 -0.6177,0.0964 -0.6154,0.1074 -0.6131,0.118 -0.6112,0.1287 -0.6092,0.1389 -0.6069,0.1491 -0.6049,0.1587 -0.627,0.1774 -0.6143,0.1897 -0.6043,0.2038 -0.5958,0.2197 -0.5888,0.237 -0.5842,0.2559 -0.5811,0.2767 -0.58,0.299 -0.4184,0.2299 -0.4136,0.2384 -0.4093,0.2461 -0.4048,0.2531 -0.4008,0.2597 -0.3968,0.2653 -0.3932,0.2707 -0.3898,0.2755 -0.4892,0.3572 -0.4774,0.3645 -0.4663,0.3728 -0.4558,0.3824 -0.4465,0.3931 -0.4382,0.4051 -0.4303,0.4184 -0.4232,0.4334 -0.4343,0.466 -0.4243,0.4757 -0.4153,0.4844 -0.4073,0.4916 -0.4,0.498 -0.3932,0.5026 -0.3875,0.5065 -0.3826,0.5089 -0.3813,0.5176 -0.3753,0.521 -0.3696,0.5249 -0.3643,0.5284 -0.3591,0.5318 -0.3544,0.5352 -0.3503,0.5386 -0.3461,0.5414 -1.937,3.1637 -0.0884,0.1579 -0.0884,0.0519 -0.0882,-0.0519 -0.0873,-0.1553 -2.1042,-3.4271 -0.3733,-0.5794 -0.3781,-0.5752 -0.3836,-0.5711 -0.3889,-0.5673 -0.3948,-0.5629 -0.4014,-0.5587 -0.4079,-0.5548 -0.415,-0.5502 -0.3898,-0.5059 -0.3957,-0.5029 -0.4017,-0.4983 -0.4093,-0.4924 -0.4173,-0.4856 -0.426,-0.4771 -0.436,-0.4677 -0.4467,-0.4572 -0.6415,-0.6154 -0.6607,-0.5879 -0.6821,-0.5633 -0.7049,-0.5417 -0.4833,-0.3534 -0.4887,-0.3462 -0.4944,-0.3376 -0.5009,-0.3282 -0.5077,-0.3175 -0.5145,-0.3059 -0.5221,-0.2928 -0.5301,-0.2786 -0.4751,-0.2333 -0.4776,-0.2194 -0.481,-0.2061 -0.4848,-0.1933 -0.4895,-0.182 -0.4946,-0.1709 -0.5004,-0.1608 -0.5065,-0.1516 -0.5939,-0.1661 -0.5961,-0.1562 -0.5984,-0.1457 -0.6004,-0.1352 -0.6029,-0.125 -0.6052,-0.1143 -0.6072,-0.1034 -0.6097,-0.0927 -0.4649,-0.0632 -0.4654,-0.0567 -0.4663,-0.051 -0.4666,-0.0448 -0.4675,-0.0392 -0.4677,-0.0331 -0.4683,-0.0278 -0.4685,-0.0221 -0.4646,-0.017 -0.4649,-0.0116 -0.4646,-0.007 -0.4646,-0.003 -0.4643,0.002 -0.4643,0.006 -0.4641,0.01 -0.4637,0.0134 -2.1526,0.2126 -2.1303,0.3546 -2.099,0.496 -2.0597,0.6375 -2.0123,0.7787 -1.9562,0.9201 -1.8921,1.0611 -1.6736,1.0989 -1.5916,1.2096 -1.5013,1.315 -1.4014,1.4173 -0.3708,0.4408 -0.3648,0.4456 -0.3577,0.4513 -0.3507,0.4566 -0.343,0.4626 -0.335,0.4686 -0.3263,0.4745 -0.3172,0.4811 -0.2588,0.4082 -0.2514,0.413 -0.2438,0.4169 -0.2364,0.4213 -0.2282,0.4257 -0.22,0.4301 -0.2117,0.4345 -0.203,0.4388 -0.2826,0.6557 -0.2619,0.6624 -0.2404,0.669 -0.2197,0.6755 -0.1981,0.6823 -0.1775,0.6885 -0.1559,0.6948 -0.1346,0.7013 -0.1276,0.824 -0.0944,0.8246 -0.0629,0.8252 -0.0337,0.826 -0.007,0.8269 0.019,0.828 0.0423,0.8294 0.0637,0.8305 0.0528,0.5491 0.0609,0.5479 0.0686,0.5471 0.0757,0.546 0.0819,0.5451 0.0882,0.5442 0.0938,0.5434 0.0986,0.5429 0.1579,0.8093 0.1715,0.8053 0.1854,0.8019 0.1993,0.7982 0.2134,0.7943 0.2282,0.7909 0.2427,0.7869 0.2576,0.7832 0.2869,0.8195 0.3022,0.8121 0.3163,0.8059 0.3303,0.7999 0.3432,0.7946 0.3558,0.7892 0.3676,0.7849 0.3788,0.7809 0.3855,0.771 0.394,0.7665 0.4022,0.7617 0.4108,0.7574 0.4189,0.7523 0.4275,0.7481 0.4357,0.7435 0.4442,0.7387 0.377,0.6137 0.3824,0.6103 0.3875,0.6069 0.392,0.6038 0.3966,0.6007 0.4011,0.5981 0.4047,0.5955 0.4088,0.593 3.3965,4.7118 3.4004,4.2049 2.2181,2.5914 2.2703,2.5526 2.3159,2.5149 2.3564,2.4806 2.3908,2.448 2.4196,2.418 2.4424,2.3899 2.4596,2.3649 2.6529,2.5109 2.6714,2.492 2.6864,2.476 2.6994,2.4628 2.7094,2.4517 2.7167,2.4437 2.7213,2.4387 2.6555,2.3751 v 0 z m 9.2761,-111.2329 0.5,-0.1006 0.5442,-0.1321 0.58,-0.1607 0.6078,-0.1866 0.4113,-0.1357 0.4178,-0.1452 0.4212,-0.1533 0.4232,-0.1613 0.4224,-0.1681 0.4192,-0.1744 0.4139,-0.1797 0.4062,-0.1839 0.7506,-0.3643 0.6973,-0.3725 0.3238,-0.1879 0.3038,-0.1877 0.2824,-0.1873 0.2588,-0.1857 m 22.7367,0.0612 0.4286,0.3025 0.4716,0.2973 0.5091,0.2912 0.5412,0.2831 0.6806,0.3257 0.7083,0.3093 0.7274,0.2903 0.7367,0.2687 0.5151,0.1732 0.5117,0.1607 0.5048,0.1469 0.4955,0.1321 0.4822,0.1167 0.466,0.1001 0.4464,0.0828 0.4238,0.0646 z m -22.7367,-0.0612 0.4714,-0.1278 0.4728,-0.1219 0.4739,-0.116 0.4754,-0.1099 0.4768,-0.1035 0.4782,-0.0975 0.4799,-0.0913 0.4816,-0.0848 0.4422,-0.072 0.4428,-0.0668 0.4433,-0.0618 0.4439,-0.0573 0.4448,-0.0527 0.445,-0.0485 0.4456,-0.0445 0.4459,-0.0405 0.9746,-0.0763 0.9734,-0.0573 0.9723,-0.0377 0.9723,-0.017 0.972,0.005 0.9725,0.0281 0.9734,0.0524 0.9746,0.0777 0.686,0.0703 0.6834,0.0825 0.6815,0.0941 0.6794,0.1049 0.6781,0.1156 0.6763,0.1253 0.6755,0.1347 0.6744,0.1431 2.1535,0.5125 -0.3629,-0.3225 -0.3518,-0.3342 -0.3418,-0.345 -0.3311,-0.3552 -0.2826,-0.322 -0.2778,-0.3362 -0.2716,-0.3492 -0.2647,-0.3615 -0.2574,-0.3727 -0.2489,-0.383 -0.2398,-0.3929 -0.2296,-0.4016 -0.1956,-0.3646 -0.1865,-0.3702 -0.1766,-0.3753 -0.1664,-0.3795 -0.1556,-0.3833 -0.144,-0.3861 -0.1319,-0.3889 -0.1193,-0.3906 -0.0958,-0.3515 -0.0848,-0.3523 -0.0734,-0.3521 -0.0612,-0.3521 -0.0493,-0.3509 -0.0363,-0.3498 -0.0233,-0.3478 -0.01,-0.3455 0.0213,-0.5653 0.013,-0.3455 -0.0261,-0.1494 -0.0635,-0.1658 -0.1128,-0.2052 -0.1735,-0.269 -0.1868,-0.2705 -0.1899,-0.2718 -0.1834,-0.2761 -0.1684,-0.2829 -0.01,0.005 -0.112,0.1287 -0.3636,0.4031 -1.2668,1.3578 -1.1603,1.1704 -2.1027,1.9857 -0.3036,0.307 -0.0697,0.0343 -0.0734,-0.025 -2.1031,-1.9442 -2.1319,-2.1606 -0.8374,-0.9431 -0.011,-0.0193 -0.003,0.002 -0.002,0.002 -0.0701,0.0729 -0.1352,0.1658 -0.1888,0.2993 -0.3812,0.5278 -0.1542,0.2251 -0.0233,0.1262 -0.002,0.1644 0.009,0.1661 0.009,0.1307 0.0145,0.5204 -0.0142,0.5179 -0.0416,0.5153 -0.0681,0.5117 -0.0714,0.4008 -0.0865,0.398 -0.1003,0.3948 -0.1142,0.3918 -0.1273,0.3881 -0.1398,0.3843 -0.1513,0.3802 -0.1625,0.3755 -0.2732,0.5755 -0.2974,0.5658 -0.3197,0.555 -0.3405,0.5437 -0.3588,0.5315 -0.3765,0.5187 -0.3917,0.5054 -0.4054,0.4913 -1.1834,1.2098 v 0 z m 168.6458,-15.8227 16.958,-0.0102 -0.0678,-0.0961 -0.1607,-0.2373 -0.1613,-0.2432 -0.1602,-0.2474 -0.1576,-0.2509 -0.1544,-0.2531 -0.15,-0.2557 -0.1437,-0.2563 -0.1194,-0.2231 -0.5215,-0.237204 -0.0159,-0.009 -0.5953,-0.4136 -0.008,-0.007 -0.6202,-0.5397 -0.6163,-0.6182 -0.5913,-0.656 -0.5442,-0.6531 -0.4754,-0.6091 -0.3416,-0.4655 -0.515,0.1443 -0.5786,0.184 -0.574,0.2026 -0.5686,0.22 -0.563,0.2358 -0.5564,0.2495 -0.5494,0.2614 -0.5408,0.2712 -1.1288,0.6069 -1.1165,0.6523 -1.1039,0.6942 -1.087,0.729904 -1.0676,0.76 -1.044,0.7852 -0.3591,0.284 v 0 z m -347,-66.555804 h 11.4355 l -0.6718,-0.3277 -0.7767,-0.4056 -0.7591,-0.4209 -0.7348,-0.4309 -0.2639,-0.1474 -0.2718,-0.131 -0.2798,-0.1156 -0.2863,-0.1012 -0.2914,-0.0876 -0.2951,-0.0749 -0.2976,-0.0632 -0.298,-0.0521 -0.4317,-0.0578 -0.4368,-0.04 -0.4405,-0.0227 -0.4419,-0.007 -0.4431,0.007 -0.4422,0.021 -0.4393,0.0331 -0.4354,0.0443 -0.4048,0.0498 -0.4108,0.0601 -0.4096,0.0718 -0.3478,0.0742 -0.1961,0.512 -0.2543,0.5436 -0.2937,0.5194 -0.3345,0.4918 -0.0467,0.0572 v 0 z m 366.1015,35.5414 0.1165,0.7957 0.1018,0.7287 0.0842,0.6789 0.0646,0.6461 0.0374,0.5306 0.0204,0.5298 0.002,0.5383 -0.0176,0.5573 -0.0385,0.5862 -0.0612,0.6256 -0.0854,0.6744 -0.1102,0.7339 -0.1146,0.5975 -0.132,0.5927 -0.1874,0.7189 -0.2155,0.7089 -0.2451,0.6971 -0.275,0.6845 -0.2478,0.5488 -0.2692,0.5383 -0.2906,0.5276 -0.3127,0.5153 -0.2984,0.4493 -0.3164,0.4385 -0.3353,0.4275 -0.3544,0.4158 -0.8076,0.7934 -0.8455,0.7368 -0.3314,0.267 -0.337,0.2608 -0.3427,0.2548 -0.3473,0.2477 -0.3521,0.2418 -0.3563,0.2345 -0.36,0.2279 -0.3634,0.2205 -0.2982,0.1752 -0.3056,0.1732 -0.3101,0.1667 -0.2647,0.1323 -0.0482,0.241 -0.0737,0.301 -0.0879,0.3082 -0.1009,0.3103 -0.1131,0.3082 -0.1239,0.3016 -0.1335,0.29 -0.007,0.0127 0.2531,-0.1034 0.2659,-0.1015 0.2685,-0.0964 0.2693,-0.0913 0.2684,-0.0867 0.2659,-0.0828 0.2625,-0.0796 0.3764,-0.1106 0.3779,-0.1071 0.3787,-0.1035 0.3798,-0.1004 0.3804,-0.0972 0.3807,-0.0949 0.3813,-0.0925 0.3813,-0.0907 0.7934,-0.1831 0.7968,-0.1777 0.7999,-0.1715 0.8022,-0.1661 0.8031,-0.1596 0.8039,-0.1536 0.8036,-0.1477 0.72,-0.1265 0.009,-0.3724 0.0326,-0.4519 0.055,-0.4481 0.0762,-0.4442 0.0987,-0.4397 0.1205,-0.4354 0.142,-0.4303 0.1621,-0.4209 0.005,-0.0105 0.3368,-0.6284 0.3691,-0.6086 0.4008,-0.5888 0.4317,-0.5695 0.4623,-0.5508 0.4913,-0.5317 0.5196,-0.5125 0.5465,-0.4941 0.3923,-0.3297 0.4048,-0.3212 0.4167,-0.3123 0.4283,-0.3036 0.4397,-0.2948 0.4501,-0.2863 0.4615,-0.2778 0.4717,-0.2693 0.6352,-0.3419 0.6474,-0.3257 0.6594,-0.3087 0.6704,-0.2905 0.498,-0.2013 0.5032,-0.1919 0.5079,-0.1825 0.512,-0.1729 0.5156,-0.1636 0.5193,-0.1539 0.5224,-0.1449 0.5247,-0.1352 0.5868,-0.1397 0.589,-0.1282 0.5905,-0.1165 0.5919,-0.1048 0.5921,-0.0936 0.5922,-0.0822 0.5916,-0.0706 0.5907,-0.0592 0.5715,-0.0465 0.5695,-0.036 0.5669,-0.0252 0.5638,-0.0145 0.5601,-0.004 0.5562,0.007 0.5516,0.0173 0.5465,0.0278 0.7543,0.0785 0.7382,0.1123 0.0691,0.0125 0.0664,0.0436 0.0147,0.078 -0.0159,0.0711 -0.9144,3.274 -0.1514,0.4748 -0.1553,0.4697 -0.1596,0.4646 -0.163,0.459 -0.1676,0.4535 -0.1712,0.4479 -0.1757,0.4419 -0.1797,0.4362 -0.2566,0.5942 -0.2647,0.5819 -0.2738,0.5695 -0.2827,0.557 -0.2916,0.5437 -0.3008,0.5304 -0.3107,0.5162 -0.32,0.5023 -0.3393,0.5006 -0.3495,0.485 -0.3609,0.4688 -0.3719,0.4521 -0.3827,0.4352 -0.3943,0.4181 -0.4062,0.3999 -0.4178,0.3822 -0.5051,0.4237 -0.5219,0.398 -0.5391,0.3711 -0.5565,0.3441 -0.5748,0.3158 -0.5931,0.2874 -0.6114,0.2583 -0.6304,0.2284 -0.5448,0.1687 -0.5587,0.1465 -0.5726,0.1245 -0.5871,0.1017 -0.6012,0.0788 -0.616,0.0553 -0.6307,0.0315 -0.6457,0.008 -0.3665,-0.006 -0.3714,-0.0142 -0.3764,-0.0218 -0.381,-0.0298 -0.3858,-0.0374 -0.3909,-0.0453 -0.3957,-0.0536 -0.4008,-0.0615 -1.0267,-0.2223 -1.0154,-0.2709 -1.0021,-0.3155 -0.9861,-0.3541 -0.9511,-0.3813 -0.5536,-0.0433 -0.5675,0.009 -0.5663,0.0575 -0.5627,0.1023 -0.5559,0.1421 -0.5462,0.1777 -0.5341,0.2089 -0.5198,0.2356 -0.2461,0.1224 -0.2537,0.1332 -0.2568,0.1421 -0.2568,0.1499 -0.2526,0.1565 -0.2455,0.1613 -0.2352,0.1661 -0.171,0.1307 0.0919,0.4107 0.2282,0.4456 0.3302,0.4246 0.4062,0.396 0.453,0.3581 0.4754,0.3155 0.468,0.2647 0.4016,0.1925 0.2568,-0.0808 0.3184,-0.0712 0.3192,-0.0541 0.3004,-0.0428 2.2091,-0.182 2.1928,-0.0468 0.4919,0.0193 0.4855,0.0323 0.4794,0.0468 0.4739,0.0624 0.5791,0.1 0.5715,0.1276 0.5638,0.1567 0.5565,0.188 0.3155,0.1222 0.3132,0.1335 0.3112,0.1448 0.3096,0.1571 0.3075,0.1692 0.3056,0.1817 0.3042,0.195 0.3024,0.2084 0.3271,0.2418 0.3252,0.258504 0.3234,0.2758 0.3223,0.2931 0.3209,0.3115 0.3197,0.3302 0.3184,0.349 0.3177,0.3685 0.167,0.2049 68.8555,-0.0416 0.0717,0.0297 0.1012,0.1012 0.0298,0.0715 v 116.4581 l -0.0298,0.0714 -0.1012,0.1015 -0.0717,0.0295 -99.4555,-0.006 1.1764,1.7209 1.3337,1.866 1.3816,1.8445 1.4284,1.8145 1.4743,1.7759 1.5188,1.7288 1.5618,1.673 1.6047,1.6093 0.8445,0.8025 0.8643,0.788 0.8835,0.7699 0.9031,0.7486 0.9224,0.724 0.9414,0.6956 0.961,0.6639 0.9243,0.5933 0.9522,-0.6971 1.2248,-0.8427 1.3771,-0.8839 1.4652,-0.862 1.4902,-0.7778 1.4414,-0.6262 0.0102,-0.004 1.3352,-0.4147 0.0178,-0.004 1.1299,-0.1358 0.377,-0.3694 0.415,-0.39 0.4261,-0.385 0.4342,-0.3792 0.4394,-0.3725 0.4419,-0.3651 0.4417,-0.356 0.4396,-0.347 0.9471,-0.7214 0.9739,-0.7022 0.9987,-0.6772 1.0219,-0.6468 1.0428,-0.612 1.0619,-0.5718 1.0789,-0.5261 1.0947,-0.4759 1.1622,-0.4374 1.1923,-0.3711 1.2152,-0.2919 1.2314,-0.2002 1.2407,-0.0958 1.2316,0.0204 0.0105,9e-4 1.226,0.1494 0.0113,0.002 1.2161,0.2914 1.5775,0.4376 1.605,0.364 1.627,0.2894 1.6422,0.2132 1.6503,0.1355 1.6512,0.0558 1.6455,-0.0246 1.6333,-0.1075 0.8099,-0.0884 0.9473,-0.1344 1.0304,-0.1828 1.061,-0.235 1.0386,-0.2894 0.9658,-0.3481 0.8348,-0.4065 0.6633,-0.4725 0.0482,-0.0182 0.1188,-0.0127 0.1031,0.0598 0.0482,0.1094 0.006,0.0643 -0.1046,0.4394 -0.1213,0.4465 -0.1353,0.4498 -0.1468,0.4499 -0.1556,0.4464 -0.1616,0.4397 -0.1655,0.4297 -0.1667,0.417 -0.417,0.9746 -0.4521,0.9617 -0.487,0.9468 -0.5216,0.9289 -0.5559,0.9085 -0.5893,0.8861 -0.623,0.8612 -0.4068,0.5057 -0.4105,0.4904 -0.4135,0.4745 -0.4173,0.4592 -0.4204,0.4439 -0.4238,0.4286 -0.4266,0.4136 -0.4303,0.3989 -0.5278,0.4654 -0.532,0.4442 -0.5366,0.4224 -0.5409,0.4016 -0.5451,0.3804 -0.5493,0.36 -0.5534,0.3393 -0.557,0.3195 -0.4844,0.2599 -0.4876,0.2452 -0.4898,0.2308 -0.4927,0.2163 -0.4952,0.2021 -0.498,0.1879 -0.5001,0.1741 -0.5025,0.1604 -0.6721,0.1922 -0.6764,0.1684 -0.68,0.1454 -0.6837,0.1222 -0.6871,0.0997 -0.6909,0.0774 -0.6939,0.0559 -0.6967,0.034 -0.7175,0.0133 -0.7205,-0.009 -0.7234,-0.03 -0.726,-0.0511 -0.7279,-0.0714 -0.7305,-0.0918 -0.7328,-0.1114 -0.7344,-0.131 -0.6531,-0.1318 -0.6543,-0.1468 -0.6556,-0.161 -0.6565,-0.1752 -0.6577,-0.1891 -0.6582,-0.2024 -0.659,-0.2157 -0.6597,-0.2288 -0.5286,-0.1924 -0.5284,-0.2002 -0.5289,-0.2083 -0.529,-0.2157 -0.5292,-0.2234 -0.529,-0.231 -0.5289,-0.2381 -0.5289,-0.2452 -0.3935,-0.1749 -0.3909,-0.1792 -0.5275,-0.2489 -0.5593,-0.2826 -0.2781,-0.153 -0.269,-0.1599 -0.2545,-0.1664 -0.1959,-0.144 -0.5131,0.0666 -0.5737,0.0998 -0.5856,0.1256 -0.5882,0.1493 -0.5803,0.171 -0.5635,0.1902 -0.5375,0.2078 -0.5014,0.223 -0.4068,0.2075 -0.4008,0.233 -0.3858,0.26 -0.3634,0.2877 -0.3342,0.3189 -0.294,0.347 -0.2471,0.3781 -0.1715,0.364 0.2817,0.3929 0.343,0.4422 0.3654,0.441 0.3816,0.4351 0.3925,0.4255 0.3975,0.4108 0.3971,0.3926 0.3903,0.3699 0.8326,0.7342 0.8753,0.6936 0.9162,0.6435 0.9544,0.5833 0.9901,0.514 1.0236,0.4339 1.0545,0.345 1.0755,0.2441 2.0106,-0.1542 2.0389,-0.0819 h 2.0452 l 2.0447,0.0898 2.0364,0.1879 2.0211,0.294 1.9984,0.4079 1.969,0.5301 1.5865,0.5318 1.5398,0.6162 1.4913,0.703 1.4403,0.7912 1.3864,0.8801 1.3309,0.9709 1.2727,1.0633 1.213,1.1576 1.4819,1.6458 1.3303,1.749 1.1855,1.8408 1.0474,1.9211 0.917,1.9902 0.7928,2.0471 0.6758,2.0934 0.5658,2.1283 0.5358,2.5359 0.4084,2.5715 0.2897,2.5977 0.1797,2.6136 0.0788,2.62 -0.0136,2.6164 -0.0972,2.6031 -0.1718,2.5775 -0.0116,0.0402 -0.0371,0.0706 -0.0615,0.0502 -0.0769,0.0218 -0.0436,0.003 -1.6846,-0.2662 -1.7666,-0.3807 -1.8366,-0.4915 -1.8946,-0.5981 -1.9406,-0.7013 -1.9755,-0.7997 -0.7055,-0.32 -0.7096,-0.3297 -0.7131,-0.3401 -0.7161,-0.3498 -0.718,-0.36 -0.7197,-0.3702 -0.7209,-0.3799 -0.7208,-0.39 -0.7923,-0.4403 -0.7911,-0.4521 -0.7889,-0.4643 -0.7864,-0.4762 -0.7826,-0.4884 -0.7778,-0.5003 -0.773,-0.5123 -0.7665,-0.5244 -0.5599,-0.3937 -0.5556,-0.4003 -0.5513,-0.4067 -0.5465,-0.413 -0.5414,-0.4198 -0.5361,-0.4261 -0.5303,-0.4328 -0.5239,-0.4391 -0.5281,-0.4547 -0.521,-0.4615 -0.5136,-0.4683 -0.506,-0.4751 -0.4978,-0.4816 -0.4892,-0.4884 -0.4805,-0.4952 -0.4714,-0.502 -0.5131,-0.5666 -0.5008,-0.5746 -0.4885,-0.5834 -0.475,-0.5916 -0.4612,-0.5998 -0.4471,-0.608 -0.4322,-0.6166 -0.417,-0.6247 -0.4006,-0.6316 -0.3846,-0.64 -0.3677,-0.648 -0.3509,-0.6565 -0.3334,-0.6648 -0.3149,-0.6729 -0.2968,-0.6812 -0.2775,-0.6894 -0.2367,-0.6369 -0.2199,-0.6438 -0.203,-0.6508 -0.1857,-0.6576 -0.1678,-0.6645 -0.1497,-0.6712 -0.1312,-0.6784 -0.1125,-0.6848 -0.0916,-1.7232 0.0797,-1.7246 8e-4,-0.0102 0.2588,-1.7328 0.002,-0.0105 0.4263,-1.66 -1.3331,-0.6823 -1.4034,-0.7313 -1.4004,-0.743 -1.396,-0.7537 -1.3901,-0.7642 -1.3831,-0.7739 -1.3745,-0.7829 -1.3643,-0.7909 -0.6531,-0.3843 -0.652,-0.3878 -0.6502,-0.3918 -0.6477,-0.3963 -0.6449,-0.4011 -0.6412,-0.4062 -0.6372,-0.4121 -0.6327,-0.4181 -0.4485,-0.3016 -0.4541,-0.3107 -0.4561,-0.3195 -0.4544,-0.3282 -0.449,-0.3368 -0.4405,-0.3452 -0.4283,-0.3541 -0.1877,-0.1647 0.0567,0.2948 0.0865,0.6123 0.0609,0.6296 0.0363,0.6378 0.0119,0.6358 -0.0119,0.6242 -0.0354,0.6029 -0.0527,0.5179 0.4518,0.4294 0.4785,0.4825 0.4671,0.4921 0.4536,0.4929 0.5454,0.6106 0.5349,0.6217 0.5241,0.6318 0.5125,0.6418 0.5,0.6514 0.4876,0.6604 0.46,0.6639 0.4383,0.661 0.417,0.6588 0.3954,0.656 0.2322,0.4008 0.2242,0.3999 0.2168,0.3994 0.2089,0.3983 0.2016,0.3977 0.1939,0.3966 0.1868,0.3963 0.1791,0.3954 0.2276,0.5253 0.2146,0.5241 0.2024,0.5233 0.1899,0.5218 0.1781,0.5213 0.1658,0.5202 0.1542,0.5196 0.1423,0.5184 0.18,0.7234 0.1579,0.7223 0.1369,0.7211 0.1156,0.7203 0.0956,0.7194 0.0751,0.7189 0.0561,0.7186 0.0369,0.7183 0.0153,0.5335 0.005,0.5337 -0.005,0.5338 -0.0141,0.5338 -0.0236,0.534 -0.0329,0.5343 -0.0416,0.5349 -0.0508,0.5352 -0.0674,0.6015 -0.078,0.6024 -0.0884,0.6029 -0.0984,0.6041 -0.1083,0.6052 -0.1179,0.606 -0.127,0.6075 -0.136,0.6086 -0.1608,0.6741 -0.1706,0.6757 -0.1806,0.6775 -0.1902,0.6801 -0.1995,0.682 -0.2081,0.6843 -0.2166,0.6868 -0.2245,0.6897 -1.6154,4.515 -0.1954,0.5011 -0.2004,0.5006 -0.2103,0.5035 -0.2177,0.5079 -0.2109,0.5072 -0.1916,0.5065 -0.0221,0.0346 -0.059,0.0609 -0.0791,0.0304 -0.0847,-0.005 -0.0442,-0.0133 -0.271,-0.1562 -0.2739,-0.1729 -0.2741,-0.1863 -0.2724,-0.1967 -0.5258,-0.4059 -0.4859,-0.4006 -0.4926,-0.4444 -0.4893,-0.4652 -0.4853,-0.4844 -0.4807,-0.5035 -0.4763,-0.5221 -0.4708,-0.5394 -0.4654,-0.5565 -0.4598,-0.5726 -0.3767,-0.4878 -0.3722,-0.4981 -0.3674,-0.5077 -0.362,-0.5176 -0.3569,-0.5266 -0.3512,-0.5358 -0.3452,-0.5437 -0.3391,-0.5519 -0.4272,-0.7211 -0.4158,-0.7325 -0.4045,-0.7438 -0.3923,-0.7537 -0.25,-0.4984 -0.2447,-0.5017 -0.2389,-0.5054 -0.233,-0.5085 -0.2274,-0.5117 -0.2211,-0.5145 -0.2148,-0.5167 -0.2087,-0.5193 -0.2341,-0.6058 -0.2251,-0.6083 -0.216,-0.6106 -0.2066,-0.612 -0.197,-0.6134 -0.1871,-0.6146 -0.1769,-0.6151 -0.1667,-0.6154 -0.1769,-0.7002 -0.1629,-0.6998 -0.1486,-0.6985 -0.1341,-0.6967 -0.119,-0.6945 -0.1038,-0.6917 -0.0881,-0.6882 -0.072,-0.6843 -0.0647,-0.8102 -0.0411,-0.8033 -0.0167,-0.7948 0.008,-0.7858 0.0335,-0.7756 0.0592,-0.7647 0.0859,-0.7532 0.1131,-0.7401 0.1304,-0.6789 0.1551,-0.6665 0.18,-0.6528 0.2055,-0.6386 0.2313,-0.6239 0.2579,-0.6081 0.2846,-0.5915 0.3119,-0.5746 0.2982,-0.4921 0.3203,-0.4779 0.3424,-0.4627 0.3651,-0.4473 0.3878,-0.4314 0.411,-0.4147 0.4346,-0.3977 0.458,-0.3801 0.9009,-0.612 -0.007,-0.3422 -0.0165,-0.4022 -0.0241,-0.4051 -0.0309,-0.4065 -0.0371,-0.4062 -0.0417,-0.4039 -0.0462,-0.3994 -0.0493,-0.3926 -0.1202,-0.8416 -0.1437,-0.8447 -0.1684,-0.8445 -0.1947,-0.8399 -0.2228,-0.8334 -0.2523,-0.8212 -0.2832,-0.8059 -0.3158,-0.788 -0.2355,-0.5253 -0.2554,-0.5187 -0.2761,-0.5094 -0.2974,-0.4966 -0.3197,-0.4816 -0.3433,-0.4635 -0.3674,-0.4428 -0.3934,-0.4206 -0.9303,-0.934 -0.9289,-0.9349 -0.9267,-0.9366 -0.9241,-0.9391 -0.9204,-0.9428 -0.9162,-0.9473 -0.9107,-0.9528 -0.7302,-0.7732 V 385.641 l -0.0298,0.0717 -0.1012,0.1012 -0.0714,0.0297 h -116.0846 v 10.4245 l -0.0294,0.0714 -0.1015,0.1012 -0.0714,0.0297 h -167.0933 l -0.0718,-0.0297 -0.1012,-0.1012 -0.0297,-0.0714 V 319.3867 H 24.060566 l -0.0717,-0.0298 -0.1012,-0.1012 -0.0295,-0.0717 V 202.7252 l 0.0077,-0.0389 0.0295,-0.0717 0.0549,-0.0547 0.0718,-0.0298 0.0388,-0.008 1.6775,0.002 -0.299,-0.057 -1.3527,-0.3107 -1.3419,-0.3642 -1.3264,-0.4201 -1.3045,-0.4785 -1.2781,-0.5386 -1.2458,-0.6018 -1.2073,-0.6659 -0.7115,-0.4365 -0.6973,-0.466 -0.6769,-0.4958 -0.6486,-0.5247 -0.2327,-0.2018 -0.2359,-0.2137 -0.2293,-0.2231 -0.2089,-0.224 -0.023,-0.0402 -0.0241,-0.0814 0.0122,-0.0842 0.0462,-0.0708 0.0292,-0.0292 0.3824,-0.2526 0.3835,-0.2715 0.383,-0.2773 0.3796,-0.2701 0.3784,-0.2602 0.3804,-0.2569 0.3824,-0.2534 0.3847,-0.2503 0.3869,-0.2466 0.3889,-0.2432 0.3912,-0.2404 0.3946,-0.237 3.9798,-2.2002 0.4938,-0.2546 0.4893,-0.2474 0.4852,-0.2398 0.4814,-0.2319 0.4776,-0.2239 0.4745,-0.216 0.4711,-0.2078 0.4683,-0.1996 0.4658,-0.1913 0.4631,-0.1826 0.4615,-0.1737 0.4595,-0.165 0.4578,-0.1562 0.4567,-0.1471 0.4555,-0.1378 0.4547,-0.1284 0.4289,-0.1125 0.4286,-0.1041 0.4286,-0.0955 0.4286,-0.0864 0.4291,-0.0777 0.4298,-0.0689 0.4305,-0.0595 0.4315,-0.0502 0.5524,-0.0504 0.5551,-0.0352 0.5581,-0.0196 0.5613,-0.004 0.5655,0.0124 0.5695,0.0292 0.5743,0.0454 0.5796,0.0623 0.6665,0.0916 0.6743,0.1142 0.6835,0.137 0.6925,0.1598 0.7027,0.1834 0.7132,0.2075 0.7248,0.2313 0.7364,0.2557 0.4609,0.1704 0.4655,0.1794 0.4708,0.1894 0.476,0.199 0.4816,0.2086 0.487,0.2185 0.4929,0.2285 0.4989,0.2384 0.6245,0.3175 0.6179,0.3285 0.6103,0.339 0.4941,0.2838 0.4964,0.2956 0.4909,0.307 0.4326,0.2889 0.4158,-0.1392 0.4901,-0.1412 0.51,-0.1255 0.5233,-0.108 0.5295,-0.0888 0.5284,-0.0671 0.5207,-0.044 0.2092,-0.008 -0.1384,-0.1012 -0.3702,-0.2874 -0.3651,-0.2985 -0.3605,-0.3079 -0.7005,-0.6278 -0.6704,-0.6279 -0.4668,-0.4479 -0.4626,-0.453 -0.4587,-0.4572 -0.4547,-0.4609 -0.4515,-0.4646 -0.4479,-0.4672 -0.445,-0.4694 -0.4425,-0.4714 -0.9133,-0.985 -0.9086,-0.995 -0.9028,-1.0037 -0.896,-1.012 -0.8884,-1.0182 -0.8802,-1.0244 -0.8708,-1.029 -0.8073,-0.9681 -0.5612,0.3068 -0.6472,0.3138 -0.6593,0.2814 -0.6707,0.2483 -0.5482,0.1628 -0.5494,0.1428 -0.5507,0.123 -0.5517,0.1035 -0.5527,0.0845 -0.5533,0.0655 -0.5539,0.0473 -0.5545,0.0289 -0.5383,0.0111 -0.5386,-0.005 -0.5385,-0.0216 -0.5386,-0.0374 -0.5383,-0.0527 -0.538,-0.068 -0.5375,-0.0831 -0.5366,-0.0975 -0.718,-0.1534 -0.7163,-0.178 -0.7144,-0.2024 -0.712,-0.2259 -0.7095,-0.2486 -0.7067,-0.2707 -0.7033,-0.2917 -0.6999,-0.3127 -0.8101,-0.3889 -0.8048,-0.4147 -0.7982,-0.4391 -0.7917,-0.4629 -0.7846,-0.485 -0.7767,-0.506 -0.7685,-0.5258 -0.76,-0.5448 -0.4895,-0.364 -0.4856,-0.3713 -0.4816,-0.3779 -0.4771,-0.3843 -0.4728,-0.3909 -0.468,-0.3966 -0.4634,-0.402 -0.4587,-0.4073 -0.595,-0.5425 -0.5859,-0.5505 -0.5766,-0.5573 -0.5675,-0.5638 -0.5573,-0.5692 -0.5473,-0.5741 -0.5368997,-0.5782 -0.5261,-0.5817 -0.4737,-0.5369 -0.4643,-0.5388 -0.4544,-0.54 -0.4445,-0.5403 -0.434,-0.5406 -0.4235,-0.5397 -0.4126998,-0.5389 -0.4014,-0.5371 -0.2956,-0.4037 -0.2889,-0.4022 -0.2826,-0.4006 -0.2755,-0.3985 -0.269,-0.3963 -0.2619,-0.394 -0.2549,-0.3909 -0.2477,-0.3881 -0.6395,-1.0839 -0.6027,-1.1044 -0.5581,-1.1211 -0.50659996,-1.1336 -0.4453,-1.137 -0.0068,-0.0428 0.0043,-0.0793 0.0354,-0.0715 0.0604,-0.0516 0.0368,-0.0201 1.78869996,-0.5349 1.8383,-0.4997 1.8806998,-0.457 1.9154,-0.4062 1.9428997,-0.3478 1.9627,-0.2812 1.9752,-0.2066 1.9803,-0.1248 2.4879,0.0219 0.4669,0.0181 0.4618,0.0227 0.4572,0.0272 0.4521,0.0317 0.4476,0.0363 0.4428,0.0408 0.4379,0.0454 0.4332,0.0499 0.8268,0.11 0.8096,0.1275 0.792,0.1449 0.7747,0.1621 0.7574,0.18 0.7407,0.1973 0.7237,0.2154 0.7072,0.2331 0.8538,0.3135 0.8289,0.3413 0.8045,0.3693 0.7798,0.3969 0.7557,0.4246 0.7319,0.4533 0.7084,0.481 0.6851,0.5097 0.7112,0.5796 0.6852,0.6126 0.6593,0.646 0.6344,0.6795 0.6092,0.7132 0.585,0.7466 0.5607,0.781 0.5372,0.8149 0.4433,0.728 0.4261,0.7534 0.4093,0.779 0.3932,0.8047 0.3767,0.8306 0.3606,0.8563 0.3449,0.8825 0.3297,0.9085 0.1953,0.5726 0.1896,0.5825 0.184,0.5924 0.1783,0.6027 0.1726,0.6128 0.1673,0.6228 0.1621,0.6327 0.1565,0.6432 0.5063,3.122 0.4016,0.8417 0.4839,0.8104 0.5519,0.7682 0.6117,0.7254 0.6633,0.6828 0.7059,0.6398 0.7395,0.597 0.7659,0.5536 0.3788,0.254 0.3994,0.2554 0.4149,0.2525 0.4258,0.2461 0.432,0.235 0.4337,0.2202 0.4314,0.2021 0.3714,0.1571 0.2781,-0.22 0.2287,-0.2375 0.2027,-0.2603 0.18,-0.2834 0.1573,-0.3005 0.1358,-0.3129 0.1165,-0.3212 0.0978,-0.3254 0.0816,-0.324 0.0907,-0.4564 0.0718,-0.4839 0.0524,-0.5028 0.0334,-0.5134 0.0139,-0.5156 -0.0051,-0.5088 -0.0243,-0.4941 -0.0406,-0.4334 -0.1562,-0.1358 -0.1854,-0.1803 -0.1828,-0.1936 -0.1794,-0.203 -0.339,-0.411 -0.307,-0.3931 -1.423,-1.9347 -1.4321,-2.0826 -0.4028,-0.6313 -0.3849,-0.6236 -0.3632,-0.6248 -0.3381,-0.6352 -0.201,-0.4127 -0.1916,-0.4207 -0.1823,-0.4306 -0.1726,-0.4425 -0.1639,-0.4555 -0.1545,-0.4705 -0.1451,-0.487 -0.1363,-0.5054 -0.0888,-0.3603 -0.0847,-0.37 -0.0802,-0.3809 -0.0763,-0.3918 -0.072,-0.4036 -0.068,-0.4159 -0.0638,-0.4289 -0.0598,-0.4419 -0.051,-0.4255 -0.044,-0.4226 -0.036,-0.4201 -0.0286,-0.4175 -0.0207,-0.4148 -0.013,-0.4121 -0.0051,-0.4099 0.0025,-0.4071 0.0133,-0.4668 0.0241,-0.4641 0.0349,-0.4609 0.0459,-0.4578 0.057,-0.4552 0.0683,-0.4521 0.0797,-0.4496 0.0912,-0.447 0.1769,-0.7359 0.2095,-0.7294 0.2421,-0.7228 0.2761,-0.7172 0.297,-0.6834 0.3289,-0.6786 0.3611,-0.6741 0.3943,-0.6698 0.4734,-0.735 0.5148,-0.7305 0.5567,-0.7271 0.5989,-0.7234 1.3196,-1.4068 1.3833,-1.2408 1.1695,-0.9215 1.0018,-0.7141 0.942,-0.6193 0.3475,-0.207 0.3495,-0.1972 0.3498,-0.1854 0.3436,-0.1684 0.064,-0.009 0.1174,0.0229 0.081,0.0876 0.0139,0.1188 -0.0073,0.051 -0.3884,1.2155 -0.0822,0.4181 -0.0601,0.4184 -0.0399,0.4198 -0.0233,0.4218 0.0193,1.8247 0.212,2.0367 0.3592,1.9698 0.5646,2.0755 0.2203,0.6406 0.2304,0.6103 0.2393,0.5871 0.2472,0.5712 1.3702,3.0101 0.2846,0.6761 0.2829,0.7171 0.2795,0.7671 0.2744,0.8251 0.1545,0.5295 0.1264,0.5225 0.0987,0.519 0.0717,0.5185 0.0456,0.5218 0.0202,0.5284 -0.0049,0.5383 -0.0289,0.5513 -0.0385,0.4402 -0.0525,0.4516 -0.0655,0.4652 -0.079,0.4796 -0.0916,0.4961 -0.104,0.5142 -0.1162,0.5337 -0.1279,0.5548 -0.2761,0.9915 -0.3135,0.9828 -0.3467,0.9723 -0.3756,0.9584 -0.4014,0.9425 -0.4223,0.9235 -0.2052,0.4295 -0.2132,0.4337 -0.2203,0.4362 -0.2273,0.4354 -0.2339,0.4323 -0.24,0.4266 -0.2464,0.4187 -0.2324,0.3764 0.0972,0.9599 3e-4,0.0181 -0.0944,1.1874 -0.0017,0.0108 -0.2509,1.3226 -0.3659,1.3831 -0.4408,1.379 -0.4757,1.3105 -0.4705,1.1766 -0.3954,0.9097 1.6914,1.5899 1.9083,1.5458 2.0392,1.4541 2.1371,1.361 2.1996,1.2673 2.2275,1.1727 2.2226,1.078 2.042095,0.9187 V 35.866296 l 0.0295,-0.0717 0.1015,-0.1012 0.0714,-0.0298 h 35.689599 v 0 l -0.1998,-0.1428 -0.1993,-0.1585 -0.1893,-0.1735 -0.1704,-0.1871 -0.1429,-0.1998 -0.1063,-0.212 -0.0606,-0.2231 -0.006,-0.2336 0.0397,-0.1928 0.0748,-0.1845 0.1035,-0.1757 0.1259,-0.1662 0.1414,-0.1556 0.1511,-0.1445 0.1539,-0.133 0.1502,-0.1202 0.5038,-0.3639 0.5315,-0.3436 0.5428,-0.3283 0.538,-0.3172 0.9354,-0.5164 0.7526,-0.387 0.741,-0.375 0.7336,-0.358 0.7314,-0.3362 0.587,-0.2506 0.5908,-0.2307 0.5964,-0.2084 0.6046,-0.1839 0.4836,-0.1259 0.4915,-0.1077 0.5,-0.0882 0.5103,-0.0677 0.521,-0.0459 0.5335,-0.023 0.5465,0.001 0.5613,0.0272 0.5901,0.0553 0.5803,0.0819 0.5797,0.1083 0.589,0.1347 1.9083,0.5601 0.3997,0.1477 0.3971,0.1556 0.3943,0.1636 0.3912,0.1712 0.3883,0.1786 0.3844,0.1853 0.3804,0.1925 0.3762,0.199 0.3033,0.1664 0.3053,0.1738 0.3027,0.1808 0.2495,0.1593 0.2318,-0.0819 0.2963,-0.0913 0.3098,-0.0825 0.3183,-0.0725 0.3229,-0.0613 0.3226,-0.0481 0.3174,-0.0343 0.0151,-9e-4 -0.2194,-0.1641 -0.2234,-0.1763 -0.2203,-0.1812 -0.2168,-0.1845 -0.2123,-0.1862 -0.2078,-0.186 -0.203,-0.1845 -0.288,-0.2668 -0.2857,-0.2695 -0.2835,-0.2725 -0.2809,-0.2746 -0.2789,-0.2767 -0.2767,-0.2786 -0.2752,-0.2801 -0.2736,-0.2809 -0.5643,-0.5876 -0.5616,-0.5936 -0.5578,-0.599 -0.5542,-0.6037 -0.5494,-0.6081 -0.5445,-0.6117 -0.5391,-0.6145 -0.4782,-0.5537 -0.3246,0.1834 -0.4048,0.2036 -0.4133,0.1831 -0.4207,0.1619 -0.3285,0.102 -0.3288,0.0904 -0.3288,0.0791 -0.3288,0.0675 -0.3291,0.0564 -0.3289,0.0456 -0.3288,0.0352 -0.3285,0.0243 -0.5154,0.0182 -0.5142,-0.006 -0.5133,-0.0298 -0.5114,-0.0525 -0.5097,-0.0742 -0.5074,-0.0953 -0.5051,-0.1153 -0.5023,-0.1347 -0.4904,-0.1502 -0.4873,-0.1673 -0.4838,-0.1834 -0.4799,-0.1987 -0.476,-0.2134 -0.4717,-0.2271 -0.4674,-0.2404 -0.4623,-0.2522 -0.7073,-0.4139 -0.6939,-0.4382 -0.68,-0.4598 -0.6645,-0.4782 -0.5672,-0.4306 -0.5544,-0.4405 -0.5406,-0.4482 -0.5261,-0.4544 -1.6189,-1.5094 -0.6242,-0.6488 -0.6069,-0.6651 -0.5879,-0.6806 -0.5683,-0.6942 -0.5468,-0.7078 -0.4411,-0.6018 -0.4326,-0.6222 -0.4195,-0.64 -0.4011,-0.6557 -0.379002,-0.669 -0.3518,-0.6797 -0.3197,-0.6883 -0.2821,-0.6919 -0.0249,-0.0658 0.003,-0.0793 0.0595,-0.0525 0.0695,-0.0229 2.480602,-0.703 0.5301,-0.1344 0.5255,-0.127 0.5219,-0.119 0.5193,-0.1117 0.5182,-0.1035 0.5173,-0.0961 0.5179,-0.0879 0.5196,-0.0802 0.5394,-0.0745 0.5434,-0.0661 0.5485,-0.0575 0.5545,-0.0491 0.5618,-0.0405 0.5703,-0.0317 0.5797,-0.023 0.5905,-0.0145 0.6797,9e-4 0.6712,0.0252 0.6625,0.0499 0.6534,0.0746 0.6437,0.0995 0.6344,0.1244 0.6242,0.1497 0.614,0.1751 0.6956,0.2339 0.6812,0.2679 0.6658,0.3024 0.6503,0.3374 0.3699,0.2106 0.3569,0.2154 0.3441,0.2208 0.3317,0.2262 0.3195,0.2313 0.3081,0.237 0.2965,0.2421 0.286,0.248 0.3285,0.3045 0.3141,0.3126 0.3005,0.3212 0.2877,0.3297 0.2753,0.3384 0.2636,0.3473 0.2525,0.3566 0.2424,0.3656 0.2458,0.3969 0.2358,0.4073 0.2268,0.4184 0.2183,0.4292 0.2108,0.4405 0.2039,0.4518 0.1981,0.4632 0.1928,0.4751 0.3359,0.9961 0.2882,1.0114 0.2433,1.0227 0.2018,1.0287 0.1604,1.0126 0.2466,0.4977 0.2988,0.4833 0.3405,0.4573 0.3764,0.4308 0.407,0.4045 0.4332,0.3779 0.4532,0.3515 0.4695,0.3257 0.2313,0.1488 0.2446,0.1494 0.254,0.148 0.2602,0.1434 0.2642,0.1369 0.2647,0.1281 0.2631,0.1168 0.2004,0.08 0.3056,-0.29 0.2656,-0.4247 0.1956,-0.5014 0.1315,-0.5522 0.0751,-0.5729 0.027,-0.5703 -0.0125,-0.538 -0.0408,-0.4437 -0.2013,-0.1791 -0.2242,-0.237 -0.2103,-0.2463 -0.1911,-0.2361 -1.3819,-1.8596 -0.4742,-0.6692 -0.4082,-0.6287 -0.1828,-0.3107 -0.171,-0.3144 -0.1601,-0.3226 -0.1508,-0.3356 -0.1653,-0.4017 -0.1528,-0.4025 -0.14,-0.4039 -0.1276,-0.4048 -0.1145,-0.4059 -0.1015,-0.4068 -0.0884,-0.4076 -0.0754,-0.4085 -0.0573,-0.3733 -0.0459,-0.3736 -0.0346,-0.3745 -0.0235,-0.3747 -0.0122,-0.3753 -6e-4,-0.3759 0.0111,-0.3762 0.0227,-0.3767 0.0368,-0.4119 0.0476,-0.4011 0.0579,-0.39 0.0683,-0.3798 0.0788,-0.37 0.0893,-0.3603 0.0995,-0.3512 0.1097,-0.3421 0.1295,-0.3589 0.1417,-0.3495 0.1531,-0.3407 0.1653,-0.3325 0.1766,-0.3246 0.1885,-0.3172 0.2001,-0.3107 0.2118,-0.3041 0.3965,-0.5168 0.432,-0.5014 0.4663,-0.4887 0.5006,-0.4785 1.2881,-1.08170005 0.1925,-0.1429 0.2256,-0.1372 0.1196,-0.0538 0.1211,-0.0377 0.1204,-0.0162 0.1174,0.01 0.0972,0.0326 0.0865,0.051 0.0768,0.0666 0.0677,0.0782 0.112,0.1778 0.0853,0.18310005 0.1267,0.3376 0.1106,0.3549 0.0983,0.3591 0.0919,0.3498 0.3577,1.3558 0.4479,1.5778 0.1641,0.5539 0.182,0.5485 0.1996,0.5428 0.2171,0.5364 0.2344,0.5286 0.2512,0.5207 0.2681,0.512 0.2863,0.5054 0.1494,0.2713 0.1338,0.2783 0.1182,0.2849 0.1035,0.2923 0.1377,0.4887 0.099,0.4969 0.064,0.5028 0.0312,0.506 0.002,0.5074 -0.0252,0.5063 -0.0491,0.5029 -0.0703,0.4972 -0.1122,0.6071 -0.1392,0.6049 -0.1633,0.6018 -0.1856,0.5967 -0.2053,0.5905 -0.2228,0.5825 -0.2378,0.5729 -0.2497,0.5598 -0.1222,0.2614 -0.1259,0.2633 -0.1304,0.2648 -0.1346,0.2642 -0.1383,0.2625 -0.1426,0.2599 -0.1463,0.2548 -0.1307,0.2172 0.0641,0.5697 3e-4,0.0185 -0.0499,0.7234 -0.001,0.0107 -0.1452,0.8096 -0.2148,0.8467 -0.2602,0.8445 -0.2818,0.8027 -0.2792,0.7212 -0.2248,0.5323 0.3883,0.3682 0.4547,0.4028 0.4689,0.3889 0.481,0.3756 0.4912,0.3629 0.4998,0.3498 0.5065,0.3379 0.5106,0.3257 1.1004,0.6579 1.1333,0.6244 1.1627,0.5922 1.1849,0.5596 1.2008,0.5266 1.2104,0.4941 1.2132,0.4612 3.8767,1.3765 h 27.4135 12.8515 l 0.0714,0.0298 0.1012,0.1012 0.0298,0.0717 -6e-4,54.5031 0.8606,-0.5706 1.0338,-0.6551 1.0482,-0.6352 1.0613,-0.6154 1.0721,-0.5958 1.0817,-0.5758 1.0894,-0.5561 1.0919,-0.5341 0.5519,-0.2865 0.5332,-0.3201 0.5153,-0.3501 0.498,-0.3775 0.4802,-0.4014 0.4624,-0.4221 0.4442,-0.4391 0.4257,-0.4524 0.5854,-0.6732 0.5598,-0.7024 0.5349,-0.7274 0.5097,-0.7475 0.4856,-0.7654 0.4614,-0.7784 0.4371,-0.7877 0.4139,-0.7929 0.1865,-0.3724 0.1857,-0.3796 0.1825,-0.3846 0.1786,-0.389 0.1729,-0.3914 0.1661,-0.3926 0.1574,-0.3918 0.1289,-0.3415 -0.6814,-0.9463 -0.6364,-1.032 -0.5516,-1.0713 -0.4589,-1.1083 -0.3583,-1.1427 -0.2498,-1.1743 -0.1326,-1.1931 -6e-4,-0.0103 -0.009,-1.2265 0.0309,-0.4598 0.0542,-0.4907 0.0768,-0.5099 0.1003,-0.5171 0.1245,-0.5127 0.1482,-0.4961 0.1735,-0.468 0.1947,-0.4198 1.2643,-2.6249 1.3697,-2.5934 1.4797,-2.5458 1.5928,-2.4806 1.7095,-2.3993 1.8301,-2.3006 1.048,-1.152 1.0221,-1.0836 0.9998,-1.0188 0.9799,-0.9561 0.9627,-0.8966 0.9487,-0.8394 0.9372,-0.7852 0.9292,-0.7339 1.1576,-0.8523 1.1549,-0.7813 1.1574,-0.7154 1.1653,-0.6554 1.1795,-0.6007 1.1985,-0.5516 1.2237,-0.5074 1.2543,-0.4694 0.0527,0.8308 0.0428,0.8399 0.0326,0.847 0.0233,0.8521 0.0136,0.8552 0.005,0.8567 -0.005,0.8555 -0.0133,0.8532 -0.0374,1.2988 -0.0567,1.281 -0.0754,1.256 -0.0936,1.2243 -0.1105,1.1852 -0.1273,1.1395 -0.1429,1.0865 -0.1579,1.0262 -0.2661,1.7623 -0.3022,1.7558 -0.3371,1.7484 -0.3713,1.745 -0.6372,2.2056 -0.004,0.0113 -0.8875,2.096 -0.005,0.01 -1.1138,1.9936 -1.3056,1.8805 -1.4686,1.7666 -1.6022,1.6514 -1.7064,1.5361 -1.7805,1.4185 -0.6959,0.5122 -0.7067,0.4992 -0.7168,0.4858 -0.7266,0.4723 -0.7355,0.4584 -0.7433,0.4444 -0.7509,0.43 -0.7571,0.4153 -0.6245,0.3308 -0.6386,0.3254 -0.6466,0.3119 -0.5998,0.2673 -0.1001,0.4198 -0.1278,0.4657 -0.1426,0.462 -0.1571,0.4576 -0.1706,0.4529 -0.1834,0.4473 -0.1953,0.4411 -0.2078,0.4363 -0.5216,0.9618 0.277,-0.1109 0.5507,-0.2012 0.5602,-0.1883 0.566,-0.1766 0.5687,-0.1663 0.5669,-0.1568 0.5618,-0.1485 0.5534,-0.1415 0.7744,-0.1913 0.7767,-0.1837 0.7787,-0.1766 0.7806,-0.1698 0.7815,-0.1641 0.7824,-0.1588 0.7829,-0.1542 0.7829,-0.1499 1.1291,-0.2101 1.1307,-0.2032 1.1319,-0.1965 1.133,-0.1902 1.1341,-0.1845 1.1348,-0.1791 1.1352,-0.1741 1.1364,-0.1692 4.021,-0.5587 0.0555,-0.8405 0.1055,-0.9133 0.1497,-0.904 0.1939,-0.8938 0.2381,-0.8832 0.282,-0.8717 0.3104,-0.7787 0.33,-0.7506 0.3492,-0.7242 0.3685,-0.6988 0.3869,-0.6741 0.4054,-0.6508 0.4235,-0.6284 0.4408,-0.6072 0.4694,-0.6007 0.487,-0.5808 0.5045,-0.5618 0.5216,-0.5443 0.5377,-0.5275 0.5545,-0.5119 0.57,-0.4981 0.5857,-0.4847 0.8022,-0.6304 0.8169,-0.6086 0.8312,-0.5868 0.8447,-0.5658 0.8572,-0.5451 0.8702,-0.5241 0.8816,-0.504 0.8932,-0.4845 0.8368,-0.4308 0.8455,-0.4147 0.8541,-0.3983 0.8623,-0.3821 0.8694,-0.3665 0.8768,-0.3512 0.8832,-0.336 0.8898,-0.3208 0.8706,-0.298 0.8753,-0.2843 0.8804,-0.2707 0.8844,-0.2576 0.8884,-0.245 0.8921,-0.2321 0.8949,-0.2194 0.8977,-0.2075 0.6429,-0.1415 0.6421,-0.136 0.6414,-0.1304 0.6412,-0.1253 0.6407,-0.1191 0.64,-0.1136 0.6401,-0.1078 0.6395,-0.1014 0.6063,-0.0907 0.6061,-0.0854 0.606,-0.0793 0.6061,-0.0735 0.6057,-0.0677 0.6061,-0.0618 0.6057,-0.0556 0.6061,-0.0493 0.7758,-0.0541 0.7759,-0.0434 0.7767,-0.0329 0.7769,-0.0221 0.7776,-0.011 0.7781,5e-4 0.7789,0.0119 0.7799,0.0233 0.678,0.0303 0.6789,0.0391 0.6798,0.0485 0.6808,0.0578 0.6815,0.0672 0.6826,0.0771 0.6837,0.0867 0.6848,0.0967 1.4851,0.2931 0.0394,0.0173 0.0646,0.0462 0.0411,0.068 0.0111,0.0788 -0.003,0.0414 -0.6458,2.2981 -0.1984,0.6383 -0.1996,0.6293 -0.2001,0.6208 -0.2012,0.6129 -0.2027,0.6054 -0.2044,0.5982 -0.2064,0.5915 -0.2089,0.5851 -0.2883,0.7875 -0.2936,0.7778 -0.3002,0.7693 -0.3067,0.7623 -0.3147,0.7554 -0.3228,0.7506 -0.332,0.7467 -0.3421,0.7435 -0.3569,0.754 -0.3608,0.7407 -0.3654,0.7277 -0.37,0.7151 -0.3755,0.703 -0.3816,0.6914 -0.3883,0.6797 -0.3955,0.6687 -0.3753,0.6135 -0.3829,0.6043 -0.3904,0.5956 -0.3988,0.5876 -0.4076,0.5794 -0.4167,0.5717 -0.4263,0.5647 -0.4369,0.5573 -0.4181,0.5156 -0.428,0.51 -0.4382,0.5042 -0.4482,0.4995 -0.4598,0.4947 -0.4708,0.4898 -0.4825,0.4856 -0.4946,0.4813 -0.6361,0.5953 -0.6367,0.5691 -0.6381,0.5435 -0.6403,0.5178 -0.6426,0.493 -0.6463,0.468 -0.65,0.4439 -0.6545,0.4198 -0.6962,0.4173 -0.7024,0.3917 -0.7098,0.3662 -0.7175,0.3413 -0.7256,0.317 -0.7354,0.2928 -0.7449,0.269 -0.756,0.246 -0.4484,0.1335 -0.453,0.1262 -0.4567,0.1182 -0.4615,0.1105 -0.4657,0.1032 -0.4703,0.0961 -0.475,0.0885 -0.4802,0.0813 -0.9621,0.1403 -0.9505,0.1089 -0.9391,0.0791 -0.9295,0.0493 -0.9198,0.0207 -0.9113,-0.007 -0.9032,-0.034 -0.8968,-0.0601 -0.6625,-0.0613 -0.6596,-0.0751 -0.6568,-0.0881 -0.6545,-0.1012 -0.652,-0.114 -0.6503,-0.1264 -0.6488,-0.1383 -0.6475,-0.1497 -0.6239,-0.1556 -0.6233,-0.1656 -0.6233,-0.1757 -0.6231,-0.1851 -0.6236,-0.1945 -0.6239,-0.2038 -0.6251,-0.2123 -0.6264,-0.2205 -3.1142,-1.2008 -1.9136,-0.8665 -1.1489,-0.1415 -1.1684,-0.0334 -1.1691,0.0671 -1.1644,0.1591 -1.1532,0.2415 -1.1364,0.3152 -1.1134,0.3801 -1.0854,0.436 -0.5193,0.2304 -0.5338,0.2512 -0.54,0.269 -0.54,0.2849 -0.5323,0.2985 -0.5185,0.3104 -0.4983,0.3206 -0.4235,0.295 0.051,0.495 0.0964,0.3963 0.1369,0.3843 0.1741,0.3759 0.206,0.3631 0.2322,0.3493 0.254,0.3347 0.2698,0.3192 0.2804,0.3013 0.4172,0.406 0.4601,0.4047 0.4947,0.3977 0.519,0.3847 0.5346,0.3654 0.5406,0.3401 0.5368,0.3085 0.4913,0.2539 0.252,-0.0759 0.3095,-0.0749 0.3223,-0.0629 0.33,-0.0533 0.6539,-0.0822 0.6092,-0.0598 0.4504,-0.0388 0.451,-0.0338 0.4519,-0.0294 0.4521,-0.0256 0.4521,-0.0215 0.4521,-0.0187 0.4519,-0.0165 0.451,-0.0138 0.8339,-0.0216 0.8351,-0.0159 0.8365,-0.0104 0.8371,-0.005 0.8371,2e-4 0.8367,0.005 0.8357,0.0105 0.8427,0.0162 0.0173,0.002 0.0119,0.002 2.9277,0.6947 2.8011,0.925 2.6448,1.1636 0.01,0.005 2.4764,1.4185 0.01,0.006 2.2876,1.6866 0.01,0.008 2.0778,1.9672 0.009,0.009 1.8476,2.261104 0.008,0.0108 1.5968,2.5679 0.005,0.009 0.7999,1.6325 0.6855,1.6945 0.5717,1.745 0.4601,1.783 0.3498,1.8094 0.2409,1.8238 0.1338,1.8258 0.009,0.5973 0.4788,-0.007 0.4784,-0.002 0.4785,0.004 0.4782,0.009 0.478,0.0148 0.4779,0.0207 0.4779,0.0263 0.4779,0.0329 0.5752,0.0474 0.5746,0.0561 0.5734,0.064 0.5723,0.072 0.5715,0.0794 0.5703,0.0868 0.5695,0.0935 0.5686,0.1001 0.3946,0.0731 0.3943,0.076 0.3932,0.0791 0.3928,0.0824 0.3921,0.0859 0.3912,0.0899 0.39,0.0941 0.3892,0.0981 0.5593,0.1496 0.5559,0.1594 0.5519,0.1692 0.5485,0.1791 0.5451,0.1894 0.5417,0.2001 0.5386,0.2106 0.5348,0.2217 0.5372,0.235 0.5324,0.2449 0.5275,0.2543 0.5233,0.2636 0.5187,0.2721 0.5142,0.2801 0.5105,0.2883 0.5063,0.2953 0.7523,0.4564 0.7413,0.4725 0.7293,0.4904 0.7169,0.51 0.4521,0.3379 0.4454,0.3452 0.4388,0.3524 0.4331,0.3594 0.4272,0.366 0.4223,0.3722 0.4179,0.3781 0.4135,0.3838 2.674,2.649 0.7219,-0.7367 0.7305,-0.7288 0.741,-0.7178 0.7537,-0.7038 0.6781,-0.6069 0.6894,-0.5913 0.7021,-0.5766 0.7152,-0.5621 0.4283,-0.3248 0.432,-0.3195 0.436,-0.3138 0.4402,-0.3073 0.4448,-0.301 0.4492,-0.2937 0.4544,-0.2866 0.4593,-0.2786 -0.5321,0.0666 -0.519,0.0542 -0.5074,0.0411 -0.4961,0.028 -0.4859,0.0145 -0.4765,8e-4 -0.4677,-0.013 -0.46,-0.0275 -0.4026,-0.0366 -0.3974,-0.0482 -0.3934,-0.0603 -0.3895,-0.072 -0.3867,-0.0848 -0.384,-0.0969 -0.3824,-0.1097 -0.3807,-0.1225 -0.4369,-0.157 -0.4368,-0.1747 -0.4374,-0.1924 -0.4396,-0.2109 -0.4419,-0.2291 -0.4456,-0.248 -0.4499,-0.2673 -0.4552,-0.2863 -0.5256,-0.3538 -0.5009,-0.3639 -0.4804,-0.3745 -0.4655,-0.3861 -0.4552,-0.3982 -0.4499,-0.4111 -0.449,-0.4243 -0.4538,-0.4385 -0.2795,-0.2923 -0.2772,-0.3095 -0.2801,-0.3042 -0.2889,-0.2749 -0.2202,0.0518 -0.2231,0.0675 -0.2245,0.0797 -0.2248,0.0881 -0.4428,0.1882 -0.424,0.18 -0.3158,0.1216 -0.3178,0.1095 -0.3191,0.098 -0.3212,0.0873 -0.6463,0.144 -0.6525,0.1063 -0.3895,0.0474 -0.3912,0.036 -0.3929,0.0263 -0.3946,0.0168 -0.3957,0.009 -0.3968,0.001 -0.398,-0.006 -0.3991,-0.0113 -0.5925,-0.0244 -0.4986,-0.0317 -0.411,-0.0428 -0.3303,-0.0582 -0.2565,-0.0776 -0.1891,-0.1015 -0.1292,-0.129 -0.0757,-0.161 -0.0252,-0.1369 -0.004,-0.1568 0.0153,-0.1785 0.0317,-0.2013 0.1026,-0.4779 0.1384,-0.5876 0.1817,-0.8502 -0.1588,-0.0507 -0.1496,-0.0672 -0.1412,-0.0825 -0.1329,-0.0966 -0.1245,-0.1097 -0.1168,-0.1219 -0.1091,-0.1332 -0.1015,-0.1432 -0.1766,-0.3005 -0.1522,-0.3268 -0.1301,-0.3458 -0.1097,-0.3572 -0.123,-0.5031 -0.093,-0.4919 -0.0683,-0.46 -0.0488,-0.4085 -0.0235,-0.299 0.005,-0.2461 0.0397,-0.1959 0.0797,-0.1491 0.1267,-0.1049 0.1791,-0.0637 0.2384,-0.0261 0.3036,0.009 0.0122,0.001 5.6849,1.1375 0.7605,0.1879 0.7566,0.2175 0.7475,0.2474 0.7327,0.277 1.3227,0.5947 0.2772,0.1258 0.3869,0.1701 0.3963,0.1582 0.3059,0.0907 0.7381,-0.7846 0.2271,-0.233 0.227,-0.2118 0.2291,-0.193 0.2344,-0.1775 0.2421,-0.1644 0.2525,-0.1539 0.2659,-0.1466 0.2821,-0.1414 -0.6441,-0.2364 -0.01,-0.004 -0.8436,-0.4388 -0.3875,-0.2273 -0.3705,-0.25 -0.3569,-0.2691 -0.3469,-0.2851 -0.1916,-0.1769 -0.2197,-0.2288 -0.2361,-0.2707 -0.2413,-0.3036 -0.1808,-0.2437 -0.1786,-0.2543 -0.1678,-0.2602 -0.1491,-0.2622 -0.1233,-0.26 -0.0885,-0.2537 -0.0459,-0.2429 0.004,-0.2285 0.0292,-0.1255 0.0507,-0.1185 0.0746,-0.11 0.0992,-0.1009 0.1261,-0.091 0.1545,-0.0802 0.184,-0.0684 0.216,-0.0558 0.3642,-0.0581 0.3697,-0.0269 0.3532,-3e-4 0.3155,0.0212 -0.1506,-0.5147 -0.1519,-0.5199 -0.1414,-0.5244 -0.1191,-0.5278 -0.0899,-0.5001 -0.0592,-0.4331 -0.0275,-0.3705 0.005,-0.311804 0.04,-0.2568 0.0754,-0.2061 0.1122,-0.1596 0.1505,-0.1165 0.1715,-0.0726 0.2058,-0.043 0.2404,-0.017 0.2764,0.006 0.6638,0.0697 0.8187,0.1259 1.5897,0.2704 -0.3572,-1.3051 -0.0785,-0.3724 -0.0896,-0.5128 -0.0822,-0.5979 -0.0561,-0.6278 -0.0116,-0.2798 -9e-4,-0.2693 0.0122,-0.254 0.0266,-0.2336 0.0428,-0.2075 0.061,-0.1768 0.0808,-0.1409 0.1023,-0.0998 0.1208,-0.0646 0.1459,-0.0496 0.1681,-0.0349 0.1874,-0.0221 0.4198,-0.009 0.4595,0.0295 0.5865,0.0763 0.5627,0.104 0.4924,0.1142 0.375,0.1072 0.4113,0.1437 0.4277,0.1695 0.4374,0.1928 0.4394,0.2143 0.5814,0.3177 0.5541,0.3473 0.2614,0.1828 0.248,0.1885 0.2325,0.1928 0.2146,0.197 0.4172,0.4204 0.4003,0.4337 0.3849,0.4461 0.3708,0.4578 1.2226,1.698304 0.9175,1.4153 0.5794,0.8175 0.2146,-0.229 0.2897,-0.3921 0.2965,-0.3687 0.3048,-0.3456 0.3135,-0.3214 0.3234,-0.2963 0.3339,-0.2704 0.3464,-0.244304 0.3586,-0.2169 0.3844,-0.1944 0.3999,-0.1642 0.4167,-0.1326 0.4346,-0.1009 0.4535,-0.0681 0.4734,-0.0343 h 0.4941 l 0.5165,0.0352 0.4958,0.0711 0.4677,0.11 0.4427,0.1483 0.4213,0.1865 0.4028,0.2236 0.388,0.260504 0.3768,0.2971 0.3685,0.3331 0.4164,0.4306 0.4853,0.5062 0.2542,0.2433 0.2549,0.216 0.2494,0.174 0.239,0.1162 0.8747,0.2778 0.0295,-0.3736 0.0678,-0.3583 0.1066,-0.3404 0.1462,-0.3206 0.1868,-0.2985 0.2279,-0.2741 0.2693,-0.2478 0.3118,-0.2191 0.2072,-0.1159 0.2197,-0.101504 0.2299,-0.087 0.2384,-0.072 0.2452,-0.057 0.2503,-0.0417 0.2534,-0.0261 0.2549,-0.0102 0.2412,0.005 0.2395,0.0201 0.2359,0.0352 0.231,0.0505 0.2245,0.0657 0.2163,0.0817 0.2069,0.0975 0.1956,0.1136 0.2055,0.1463 0.18,0.1559 0.1604,0.1641 0.1469,0.1715 0.2747,0.3603 0.2877,0.3767 0.3946,-0.4858 0.1536,-0.1899 0.1596,-0.1829 0.1689,-0.174 0.182,-0.1636 0.288,-0.2114 0.2996,-0.166704 0.311,-0.125 0.3206,-0.0862 0.3299,-0.0502 0.3379,-0.0173 0.3456,0.0131 0.352,0.0405 0.2532,0.049 0.2579,0.0712 0.258,0.0921 0.2534,0.112004 0.2438,0.1304 0.2299,0.1477 0.2112,0.1635 0.1876,0.1786 0.2092,0.2435 0.1678,0.2412 0.1307,0.2427 0.0978,0.2483 0.0689,0.2579 0.0442,0.2713 0.0241,0.2892 0.008,0.3104 0.4275,-0.1222 0.47,-0.1466 0.2299,-0.0825 0.216,-0.0887 0.1933,-0.0949 0.163,-0.1015 0.4533,-0.4252 0.7622,-0.7971 0.3532,-0.3351 0.3727,-0.3143 0.3921,-0.289504 0.4107,-0.2593 0.4289,-0.2254 0.4467,-0.1865 0.4643,-0.1434 0.4814,-0.0953 0.5162,-0.0578 0.4943,-0.0227 0.4734,0.0114 0.4533,0.0445 0.4345,0.0768 0.4167,0.108 0.3997,0.1389 0.3841,0.1681 0.4354,0.2358 0.4167,0.274104 0.3997,0.3113 0.3843,0.3469 0.3711,0.3804 0.3594,0.4133 0.3493,0.4442 0.3413,0.4734 0.2228,-0.2854 0.2151,-0.2991 0.2092,-0.309 0.2044,-0.3152 0.3977,-0.6352 0.3912,-0.616904 0.2942,-0.4405 0.3008,-0.4303 0.3095,-0.4203 0.32,-0.4102 0.3317,-0.4008 0.3458,-0.3909 0.3609,-0.3816 0.3784,-0.3722 0.2577,-0.2313 0.2718,-0.2197 0.284,-0.2083 0.294,-0.1967 0.3013,-0.1857 0.3067,-0.1743 0.3096,-0.1633 0.3104,-0.1522 0.3753,-0.1704 0.3872,-0.1613 0.3968,-0.1505 0.404,-0.138 0.4081,-0.1239 0.4105,-0.1077 0.4093,-0.0905 0.4062,-0.0705 0.4074,-0.0488 0.3583,-0.0167 0.3115,0.0144 0.2679,0.0451 0.2262,0.0748 0.1879,0.1046 0.1517,0.133 0.1179,0.1613 0.0896,0.1959 0.0592,0.2242 0.0315,0.2523 0.007,0.2795 -0.0144,0.3064 -0.0335,0.3319 -0.0493,0.3577 -0.0623,0.3819 -0.1259,0.6259 -0.1494,0.6159 -0.157,0.5976 -0.1477,0.5692 1.1517,-0.2189 0.7183,-0.1479 0.6823,-0.1211 0.3178,-0.034 0.2968,-0.007 0.2718,0.0258 0.2432,0.0658 0.1565,0.0765 0.1377,0.1041 0.1171,0.1341 0.095,0.1661 0.0711,0.2012 0.0459,0.239 0.019,0.278904 -0.009,0.3215 -0.0397,0.3736 -0.0635,0.3843 -0.0819,0.3884 -0.0941,0.3847 -0.4193,1.4777 1.0242,0.0274 0.2789,0.0414 0.2432,0.0528 0.2081,0.0637 0.1749,0.0754 0.1426,0.0865 0.1119,0.0981 0.0825,0.1094 0.0544,0.1205 0.0298,0.1562 -0.005,0.1717 -0.0372,0.1874 -0.0669,0.2035 -0.0952,0.2191 -0.1208,0.2356 -0.1445,0.2512 -0.1661,0.2675 -0.2968,0.4255 -0.3181,0.3935 -0.3211,0.3478 -0.305,0.2903 -0.2832,0.2398 -0.2685,0.2077 -0.2605,0.1832 -0.2591,0.1661 -0.5405,0.3109 -0.6151,0.3328 -0.1851,0.0836 -0.1834,0.0579 -0.18,0.0456 -0.1741,0.0465 0.2945,0.1551 0.3167,0.1887 0.3293,0.2175 0.3311,0.2392 0.4377,0.3521 0.3969,0.3668 0.1751,0.1845 0.1551,0.1823 0.1321,0.1783 0.1054,0.1729 0.3603,-0.1109 0.4408,-0.1763 0.4289,-0.1871 0.3246,-0.1434 0.6995,-0.2951 0.7039,-0.2843 0.7101,-0.2681 0.7183,-0.2461 0.6372,-0.195 0.6775,-0.1882 0.7067,-0.18 0.7253,-0.1701 0.478,-0.1049 0.4782,-0.0989 0.4753,-0.0933 0.4697,-0.087 0.4609,-0.0797 0.4491,-0.0725 0.4342,-0.0647 0.4161,-0.0561 0.6509,-0.0791 0.4464,-0.0289 0.1585,0.0102 0.121,0.0298 0.0885,0.0516 0.0609,0.0759 0.0587,0.1429 0.0391,0.1729 0.0201,0.1996 0.002,0.2228 -0.0147,0.2426 -0.0312,0.2591 -0.0462,0.2724 -0.0607,0.2821 -0.1485,0.5414 -0.1896,0.5425 -0.1083,0.2648 -0.1165,0.2568 -0.1236,0.2461 -0.1304,0.2327 -0.1188,0.1905 -0.1227,0.1766 -0.1264,0.1604 -0.1293,0.1426 -0.1321,0.123 -0.1338,0.1018 -0.1355,0.0782 -0.1363,0.053 0.3024,1.158 0.0981,0.4377 0.0663,0.3625 0.0185,0.1556 0.007,0.1403 -0.005,0.1259 -0.0184,0.1122 -0.0488,0.1338 -0.0788,0.1134 -0.1114,0.0958 -0.1468,0.0808 -0.1848,0.0686 -0.2259,0.059 -0.2693,0.0519 -0.3161,0.0482 -0.3892,0.0439 -0.4019,0.0295 -0.4068,0.0164 -0.402,0.005 -0.5232,-0.004 -0.4958,-0.0122 -0.4703,-0.0207 -0.4459,-0.0289 -0.4229,-0.0368 -0.4017,-0.0443 -0.3815,-0.0515 -0.3631,-0.0587 -0.5344,-0.1055 -0.4977,-0.1207 -0.4677,-0.1355 -0.4425,-0.1488 -0.4187,-0.1596 -0.4054,-0.1707 -0.3974,-0.1808 -0.3943,-0.1902 -0.2406,0.3455 -0.2665,0.3419 -0.2891,0.337 -0.3079,0.3308 -0.4141,0.4193 -0.4159,0.4013 -0.4175,0.3841 -0.4198,0.3666 -0.4218,0.3492 -0.4246,0.3316 -0.4275,0.3144 -0.4306,0.2974 -0.3807,0.2466 -0.3838,0.2335 -0.3864,0.2206 -0.3897,0.2075 -0.3929,0.1944 -0.3966,0.1814 -0.3999,0.1687 -0.4043,0.1556 -0.3835,0.1347 -0.3869,0.1233 -0.3912,0.1122 -0.3951,0.1009 -0.3992,0.0899 -0.4036,0.0788 -0.4082,0.0675 -0.4124,0.0564 -0.4834,0.0516 -0.4895,0.0371 -0.4966,0.0224 -0.5035,0.008 -0.5108,-0.007 -0.5184,-0.0209 -0.5261,-0.0352 -0.5341,-0.0496 1.5066,0.8708 0.7708,0.4762 0.7653,0.487 0.7586,0.4989 0.7497,0.512 0.7396,0.5261 0.7279,0.5419 0.7144,0.5588 0.699,0.5765 0.6965,0.6058 0.6786,0.6222 0.6605,0.6389 0.642,0.6562 0.6228,0.6744 0.6038,0.6928 0.5836,0.7115 0.5635,0.7313 0.3958,0.5429 0.3832,0.5504 0.3711,0.5582 0.3594,0.5652 0.3478,0.5726 0.3365,0.5797 0.3257,0.5862 0.3155,0.593 0.5238,1.0307 0.5017,1.0406 0.4763,1.0514 0.4473,1.0635 0.415,1.0758 0.3792,1.089 0.3405,1.1033 0.2982,1.1183 0.1944,0.8526 0.167,0.8532 0.1406,0.8541 0.1156,0.8564 0.0919,0.8594 0.0694,0.8635 0.0485,0.8682 0.0289,0.8745 0.0139,1.1197 -0.009,1.1154 -0.0323,1.1118 -0.0578,1.1089 -0.0845,1.1072 -0.1128,1.1061 -0.142,1.1061 -0.1729,1.1066 -0.1307,0.7274 -0.1429,0.7239 -0.1545,0.7215 -0.165,0.7188 -0.1749,0.7166 -0.1842,0.7146 -0.1925,0.7127 -0.2004,0.7112 -0.2262,0.7704 -0.2358,0.7674 -0.2449,0.7636 -0.2549,0.7603 -0.2647,0.7568 -0.2747,0.7535 -0.2849,0.7503 -0.2954,0.7467 -0.2874,0.6998 -0.2959,0.6956 -0.3039,0.6917 -0.3115,0.6885 -0.3187,0.6849 -0.3251,0.682 -0.3319,0.6795 -0.3376,0.6766 -0.2946,0.5794 -0.2987,0.5771 -0.3022,0.5755 -0.305,0.574 -0.3076,0.5726 -0.3089,0.5717 -0.3102,0.5712 -0.3109,0.5706 0.3404,0.0987 0.6058,0.1678 0.6075,0.1613 0.6094,0.1547 0.6106,0.1486 0.6111,0.1426 0.6109,0.136 0.9833,0.2067 0.9899,0.1907 0.9944,0.1732 0.9984,0.1545 1.0009,0.1335 1.0026,0.1114 1.0029,0.0873 1.0023,0.0618 0.6874,0.0267 0.6903,0.0127 0.6919,-0.003 0.6922,-0.0195 0.6908,-0.038 0.6885,-0.0581 0.6846,-0.0794 0.614,-0.0924 0.1466,-0.6616 0.2168,-0.8569 0.2682,-0.9326 0.316,-0.9567 0.36,-0.9292 0.3966,-0.8414 0.005,-0.01 0.4314,-0.7081 0.0108,-0.0142 0.4402,-0.4972 0.0547,-0.6355 0.0842,-0.6769 0.1038,-0.6727 0.117,-0.6573 0.1401,-0.6962 0.1598,-0.6985 0.1809,-0.697 0.2029,-0.6925 0.2263,-0.6854 0.2508,-0.6749 0.2764,-0.6614 0.3033,-0.6451 0.3507,-0.6582 0.3897,-0.6393 0.4314,-0.6122 0.4751,-0.5775 0.521,-0.534 0.5605,-0.4757 0.008,-0.006 0.6091,-0.4164 0.01,-0.006 0.6631,-0.35 0.8728,-0.4224 0.856,-0.466 0.8368,-0.5074 0.8133,-0.5471 0.7866,-0.5851 0.7563,-0.6208 0.7217,-0.6542 0.6842,-0.6865 0.3229,-0.353 0.3677,-0.4286 0.3852,-0.4821 0.379,-0.5174 0.3475,-0.532 0.2923,-0.529 0.2103,-0.5006 0.1091,-0.4637 0.0238,-0.0454 0.0811,-0.0878 0.1171,-0.0236 0.1083,0.0505 0.0476,0.0459 0.2486,0.4873 0.2287,0.5153 0.2073,0.523 0.1848,0.5108 0.1973,0.6015 0.1768,0.6098 0.1548,0.6168 0.3149,1.9088 0.0494,0.4848 0.0351,0.4779 0.0213,0.4705 0.008,0.4635 -0.006,0.4564 -0.0199,0.449 -0.0331,0.4422 -0.0468,0.4351 -0.0598,0.4255 -0.0729,0.4187 -0.0859,0.4118 -0.0992,0.4054 -0.1119,0.3983 -0.1248,0.392 -0.1377,0.3852 -0.1503,0.3784 -0.1604,0.3663 -0.1723,0.3597 -0.1846,0.3535 -0.1967,0.3472 -0.2083,0.3413 -0.2206,0.3354 -0.2324,0.3291 -0.2441,0.3228 -0.2835,0.3504 -0.2979,0.343 -0.3118,0.3359 -0.326,0.3288 -0.3398,0.3214 -0.3538,0.3147 -0.3677,0.3076 -0.3809,0.3007 -0.5724,0.4204 -0.6,0.4065 -0.6279,0.3926 -0.6548,0.3787 -0.6647,0.3563 -0.6903,0.3436 -0.7154,0.331 -0.7405,0.3184 -2.3564,0.8781 -0.3325,0.0956 -0.3609,0.0935 -0.3687,0.076 -0.3039,0.0366 -0.3286,0.3852 -0.3648,0.4898 -0.3503,0.5457 -0.3104,0.5842 -0.243,0.5984 -0.1513,0.5939 -0.0357,0.5683 0.0921,0.4754 0.2463,0.0564 0.3217,0.0612 0.3314,0.0522 0.3362,0.0433 0.671,0.0618 0.6412,0.0309 0.6539,9e-4 0.6571,-0.0335 0.6556,-0.0717 0.6486,-0.1125 0.6375,-0.1573 0.6208,-0.2053 0.5998,-0.2565 0.5672,-0.3081 1.5665,-1.5563 2.2371,-1.7705 0.6043,-0.4255 0.6007,-0.4005 0.5969,-0.3753 0.5939,-0.3501 0.3963,-0.2211 0.3946,-0.21 0.3931,-0.1987 0.3921,-0.1883 0.3906,-0.1768 0.3892,-0.1664 0.388,-0.1557 0.3867,-0.1448 0.4484,-0.1551 0.4468,-0.1408 0.445,-0.1265 0.4436,-0.1125 0.4425,-0.0984 0.4408,-0.0844 0.4397,-0.0709 0.4382,-0.0567 0.4927,-0.0476 0.4915,-0.0306 0.4898,-0.0134 0.4887,0.004 0.4873,0.0207 0.4861,0.0372 0.485,0.0541 0.4839,0.0703 0.4051,0.0717 0.4042,0.0831 0.4039,0.0944 0.4031,0.1057 0.4028,0.1168 0.4023,0.1281 0.4016,0.1392 0.4014,0.1499 0.7226,0.298 0.7219,0.3328 0.7212,0.3673 0.7205,0.4014 0.4187,0.2486 0.4187,0.2599 0.4184,0.2708 0.4187,0.282 0.4189,0.2931 0.419,0.3036 0.4192,0.3146 0.4198,0.3255 1.6356,1.3657 0.6495,0.5836 0.6508,0.6075 0.6525,0.6313 0.6543,0.6548 1.4487,1.6554 -8e-4,-83.6697 60.9712,-0.0235 0.508,-0.3946 0.5142,-0.422 0.5173,-0.4408 0.5174,-0.4513 1.6863,-1.472904 0.678,-0.5437 0.7027,-0.5232 0.722,-0.5026 0.7362,-0.4808 0.7461,-0.4586 0.7503,-0.4357 0.7461,-0.4093 0.2619,-0.1511 0.2514,-0.1661 0.2427,-0.1806 0.2333,-0.1939 0.2248,-0.2049 0.2154,-0.2149 0.2069,-0.2231 0.1973,-0.2287 0.2707,-0.3408 0.2583,-0.3546 0.2452,-0.3662 0.2327,-0.3753 0.2205,-0.3841 0.2086,-0.3901 0.1968,-0.394 0.1851,-0.3963 0.1647,-0.3727 0.159,-0.3833 0.1482,-0.388 0.1146,-0.3365 -0.3388,-0.4306 -0.3362,-0.4966 -0.2951,-0.5185 -0.1805,-0.4359 -0.1457,-0.4434 -0.1117,-0.4501 -0.0794,-0.4558 -0.0479,-0.4612 -0.0181,-0.4658 0.0105,-0.4694 0.0377,-0.4725 0.0498,-0.3835 0.0661,-0.385 0.0819,-0.3855 0.0972,-0.3858 0.1112,-0.3855 0.125,-0.3855 0.138,-0.3847 0.1505,-0.3832 0.2333,-0.5414 0.2551,-0.5375 0.275,-0.5321 0.2925,-0.5252 0.3255,-0.5454 0.3407,-0.5357 0.354,-0.5247 0.3646,-0.5125 0.5626,-0.743 0.658,-0.7974 0.6012,-0.697 0.5593,-0.6123 0.5315,-0.5426 0.5187,-0.4875 0.5199,-0.4476 0.5363,-0.4232 0.5669,-0.4136 2.6249,-1.7082 0.5718,-0.3687 0.3931,-0.2489 0.1415,-0.0746 0.1108,-0.0385 0.085,-10e-4 0.0644,0.0386 0.0431,0.0686 0.0337,0.1017 0.0275,0.137 0.0249,0.1732 0.0539,0.4603 0.0819,0.6211 z"
     style="fill:none;fill-opacity:1;stroke:#333333;stroke-width:1;stroke-linecap:butt;stroke-linejoin:bevel;stroke-miterlimit:4;stroke-dasharray:none;stroke-opacity:1"
     id="path4527"
     inkscape:connector-curvature="0" />
</svg>
